<svg width="400" height="540" viewBox="0 0 400 540" fill="none" xmlns="http://www.w3.org/2000/svg">
<g clip-path="url(#clip0_208_2501)">
<rect width="400" height="540" fill="#141414"/>
<rect width="400" height="540" fill="black"/>
<rect width="407" height="262" transform="translate(-7)" fill="black"/>
<path d="M370.929 24.6621L227.316 24.6621" stroke="#9D9D9D" stroke-width="2"/>
<path d="M375.134 35.1777C375.134 34.1934 375.282 33.3105 375.579 32.5293C375.876 31.748 376.298 31.0866 376.845 30.5449C377.392 29.998 378.056 29.5814 378.837 29.2949C379.618 29.0085 380.493 28.8652 381.462 28.8652C382.431 28.8652 383.306 29.0085 384.087 29.2949C384.868 29.5814 385.532 29.998 386.079 30.5449C386.626 31.0866 387.048 31.748 387.345 32.5293C387.642 33.3105 387.79 34.1934 387.79 35.1777C387.79 36.1621 387.642 37.0449 387.345 37.8262C387.048 38.6074 386.626 39.2689 386.079 39.8105C385.532 40.3522 384.868 40.7663 384.087 41.0527C383.306 41.3392 382.431 41.4824 381.462 41.4824C380.493 41.4824 379.618 41.3392 378.837 41.0527C378.056 40.7663 377.392 40.3522 376.845 39.8105C376.298 39.2689 375.876 38.6074 375.579 37.8262C375.282 37.0449 375.134 36.1621 375.134 35.1777ZM377.61 35.1699C377.61 35.8366 377.699 36.4251 377.876 36.9355C378.058 37.446 378.316 37.8757 378.649 38.2246C378.983 38.5684 379.386 38.8314 379.86 39.0137C380.334 39.1908 380.868 39.2793 381.462 39.2793C382.056 39.2793 382.59 39.1908 383.063 39.0137C383.537 38.8314 383.941 38.5684 384.274 38.2246C384.608 37.8757 384.863 37.446 385.04 36.9355C385.222 36.4251 385.313 35.8366 385.313 35.1699C385.313 34.5085 385.222 33.9251 385.04 33.4199C384.863 32.9095 384.608 32.4798 384.274 32.1309C383.941 31.7819 383.537 31.5189 383.063 31.3418C382.59 31.1595 382.056 31.0684 381.462 31.0684C380.868 31.0684 380.334 31.1595 379.86 31.3418C379.386 31.5189 378.983 31.7819 378.649 32.1309C378.316 32.4798 378.058 32.9095 377.876 33.4199C377.699 33.9251 377.61 34.5085 377.61 35.1699ZM375.845 69.1855L380.149 66.2324C380.795 65.7897 381.324 65.4043 381.735 65.0762C382.147 64.748 382.47 64.4564 382.704 64.2012C382.938 63.9408 383.1 63.7064 383.188 63.498C383.277 63.2897 383.321 63.0814 383.321 62.873C383.321 62.6335 383.272 62.4095 383.173 62.2012C383.074 61.9928 382.918 61.8105 382.704 61.6543C382.496 61.498 382.225 61.3757 381.892 61.2871C381.563 61.1986 381.17 61.1543 380.712 61.1543C380.045 61.1543 379.381 61.248 378.72 61.4355C378.058 61.623 377.384 61.9225 376.696 62.334L375.556 60.459C376.321 59.985 377.149 59.6152 378.04 59.3496C378.936 59.084 379.876 58.9512 380.86 58.9512C381.72 58.9512 382.465 59.0553 383.095 59.2637C383.73 59.4668 384.254 59.7454 384.665 60.0996C385.082 60.4538 385.392 60.8652 385.595 61.334C385.798 61.8027 385.899 62.3001 385.899 62.8262C385.899 63.2324 385.832 63.6204 385.696 63.9902C385.561 64.36 385.324 64.7428 384.985 65.1387C384.647 65.5345 384.188 65.9616 383.61 66.4199C383.037 66.873 382.313 67.3887 381.438 67.9668L379.657 69.1387H386.345V71.3105H375.845V69.1855Z" fill="white"/>
<mask id="mask0_208_2501" style="mask-type:alpha" maskUnits="userSpaceOnUse" x="-7" y="0" width="1400" height="903">
<rect x="-7" width="1400" height="903" fill="white"/>
</mask>
<g mask="url(#mask0_208_2501)">
<mask id="path-4-inside-1_208_2501" fill="white">
<path d="M175.108 93.7583C191.535 93.7583 200.551 103.368 201.511 113.543H187.019C187.019 113.543 184.234 106.226 174.73 106.32C167.335 106.32 162.252 110.701 162.252 118.583C162.158 126.387 167.146 131.616 174.935 131.616C184.156 131.71 187.318 124.393 187.318 124.393H201.826C200.19 135.133 191.173 144.272 175.423 144.272C159.294 144.272 148.925 134.568 148.925 118.693C148.925 102.818 159.263 93.7583 175.108 93.7583Z"/>
<path d="M236.097 93.7583C253.279 93.7583 264.325 104.122 264.325 118.96C264.325 133.893 253.279 144.256 236.097 144.256C218.914 144.256 207.868 134.646 207.868 118.96C207.868 103.274 218.898 93.7583 236.097 93.7583ZM236.097 131.428C246.277 131.428 249.928 125.822 249.928 118.976C249.928 112.13 246.277 106.618 236.097 106.618C225.822 106.618 222.266 112.13 222.266 118.976C222.266 125.806 225.822 131.428 236.097 131.428Z"/>
<path d="M297.841 93.7583C315.024 93.7583 326.07 104.122 326.07 118.96C326.07 133.893 315.024 144.256 297.841 144.256C280.658 144.256 269.612 134.646 269.612 118.96C269.612 103.274 280.658 93.7583 297.841 93.7583ZM297.841 131.428C308.022 131.428 311.672 125.822 311.672 118.976C311.672 112.13 308.022 106.618 297.841 106.618C287.566 106.618 284.01 112.13 284.01 118.976C284.01 125.806 287.566 131.428 297.841 131.428Z"/>
<path d="M332.6 73.7853H346.132V125.241C346.132 129.229 347.957 130.376 352.473 130.376H358.043V142.733H350.459C339.13 142.733 332.6 138.352 332.6 131.223V73.7853Z"/>
<path d="M394.737 93.7583C411.92 93.7583 422.966 104.122 422.966 118.96C422.966 133.893 411.92 144.256 394.737 144.256C377.555 144.256 366.509 134.646 366.509 118.96C366.509 103.274 377.555 93.7583 394.737 93.7583ZM394.737 131.428C404.918 131.428 408.569 125.822 408.569 118.976C408.569 112.13 404.918 106.618 394.737 106.618C384.462 106.618 380.906 112.13 380.906 118.976C380.906 125.806 384.462 131.428 394.737 131.428Z"/>
<path d="M156.792 165.878V170.243H156.242V159.707H160.081C161.245 159.707 162.142 159.974 162.819 160.523C163.48 161.057 163.81 161.827 163.81 162.8C163.81 163.774 163.48 164.527 162.803 165.077C162.142 165.627 161.23 165.893 160.081 165.893H156.792V165.878ZM156.792 160.225V165.344H160.065C161.056 165.344 161.827 165.124 162.378 164.684C162.945 164.245 163.212 163.617 163.212 162.784C163.212 161.968 162.929 161.34 162.378 160.9C161.827 160.461 161.041 160.241 160.065 160.241H156.792V160.225Z"/>
<path d="M171.347 160.288C172.165 159.848 173.062 159.613 174.069 159.613C175.061 159.613 175.973 159.832 176.791 160.288C177.61 160.728 178.255 161.371 178.727 162.188C179.199 163.004 179.435 163.931 179.435 164.967C179.435 166.003 179.199 166.93 178.727 167.746C178.255 168.563 177.61 169.191 176.791 169.646C175.973 170.086 175.076 170.321 174.069 170.321C173.078 170.321 172.165 170.102 171.347 169.646C170.529 169.207 169.884 168.563 169.412 167.746C168.94 166.93 168.704 166.003 168.704 164.967C168.704 163.931 168.94 163.004 169.412 162.188C169.884 161.356 170.529 160.728 171.347 160.288ZM174.069 160.147C173.188 160.147 172.386 160.351 171.662 160.743C170.938 161.136 170.372 161.701 169.947 162.439C169.522 163.177 169.317 164.025 169.317 164.967C169.317 165.909 169.522 166.757 169.947 167.495C170.372 168.233 170.938 168.798 171.662 169.191C172.386 169.583 173.188 169.788 174.069 169.788C174.73 169.788 175.344 169.678 175.926 169.442C176.508 169.207 177.012 168.893 177.437 168.469C177.861 168.06 178.208 167.542 178.444 166.946C178.695 166.333 178.821 165.689 178.821 164.983C178.821 164.276 178.695 163.617 178.444 163.02C178.192 162.408 177.861 161.905 177.437 161.497C177.012 161.089 176.508 160.759 175.926 160.523C175.344 160.272 174.73 160.147 174.069 160.147Z"/>
<path d="M195.752 170.243H195.076L191.63 160.445L188.184 170.243H187.507L183.794 159.707H184.392L187.853 169.615L191.331 159.707H191.944L195.422 169.615L198.883 159.707H199.45L195.752 170.243Z"/>
<path d="M211.723 170.243H204.658V159.707H211.692V160.241H205.209V164.684H211.519V165.218H205.209V169.74H211.723V170.243Z"/>
<path d="M221.589 159.691C222.738 159.691 223.619 159.942 224.248 160.445C224.878 160.947 225.192 161.654 225.192 162.565C225.192 163.475 224.878 164.182 224.233 164.684C223.587 165.187 222.706 165.454 221.589 165.454H220.881L225.13 170.227H224.421L220.22 165.454H218.269V170.227H217.718V159.691H221.589ZM218.269 160.225V164.951H221.605C222.565 164.951 223.32 164.747 223.839 164.339C224.359 163.931 224.626 163.35 224.626 162.58C224.626 161.827 224.359 161.246 223.839 160.837C223.32 160.429 222.58 160.225 221.621 160.225H218.269Z"/>
<path d="M237.812 170.243H230.747V159.707H237.78V160.241H231.298V164.684H237.607V165.218H231.298V169.74H237.812V170.243Z"/>
<path d="M247.473 159.691C249.283 159.691 250.715 160.162 251.737 161.104C252.776 162.046 253.295 163.334 253.295 164.967C253.295 166.6 252.776 167.888 251.737 168.83C250.699 169.772 249.283 170.243 247.473 170.243H243.791V159.707H247.473V159.691ZM244.342 160.225V169.693H247.473C249.141 169.693 250.431 169.269 251.344 168.437C252.257 167.589 252.713 166.443 252.713 164.967C252.713 163.491 252.257 162.329 251.344 161.497C250.431 160.649 249.141 160.241 247.473 160.241H244.342V160.225Z"/>
<path d="M270.006 159.691C271.139 159.691 272.036 159.911 272.681 160.351C273.326 160.79 273.641 161.466 273.641 162.392C273.641 162.989 273.483 163.491 273.169 163.899C272.854 164.308 272.413 164.622 271.831 164.81C272.476 164.998 272.964 165.328 273.326 165.752C273.672 166.192 273.845 166.726 273.845 167.385C273.845 168.343 273.515 169.05 272.87 169.521C272.224 169.992 271.312 170.212 270.147 170.212H265.93V159.675H270.006V159.691ZM266.497 164.575H269.99C272.036 164.575 273.058 163.852 273.058 162.392C273.058 160.947 272.036 160.209 269.99 160.209H266.497V164.575ZM266.497 165.108V169.709H270.132C272.224 169.709 273.263 168.94 273.263 167.401C273.263 165.878 272.224 165.108 270.132 165.108H266.497Z"/>
<path d="M282.547 165.579V170.243H281.996V165.579L277.716 159.707H278.393L282.263 165.046L286.15 159.707H286.811L282.547 165.579Z"/>
<path d="M160.789 177.686C161.67 177.686 162.488 177.874 163.259 178.267C164.015 178.644 164.597 179.177 165.006 179.837L164.534 180.151C164.156 179.554 163.621 179.083 162.96 178.738C162.3 178.392 161.576 178.22 160.789 178.22C159.908 178.22 159.105 178.424 158.382 178.816C157.658 179.209 157.091 179.774 156.666 180.512C156.242 181.25 156.037 182.098 156.037 183.04C156.037 183.982 156.242 184.83 156.666 185.568C157.091 186.306 157.658 186.871 158.382 187.264C159.105 187.657 159.908 187.861 160.789 187.861C161.576 187.861 162.3 187.688 162.96 187.342C163.621 186.997 164.156 186.526 164.534 185.929L164.99 186.259C164.55 186.919 163.967 187.437 163.212 187.814C162.473 188.19 161.654 188.379 160.773 188.379C159.782 188.379 158.869 188.159 158.051 187.704C157.233 187.264 156.588 186.62 156.116 185.804C155.644 184.987 155.408 184.061 155.408 183.024C155.408 181.988 155.644 181.062 156.116 180.245C156.588 179.429 157.233 178.801 158.051 178.345C158.901 177.906 159.798 177.686 160.789 177.686Z"/>
<path d="M174.494 177.764C175.643 177.764 176.524 178.015 177.153 178.518C177.783 179.02 178.097 179.727 178.097 180.638C178.097 181.548 177.783 182.255 177.138 182.757C176.493 183.26 175.611 183.527 174.494 183.527H173.786L178.035 188.3H177.326L173.11 183.527H171.158V188.3H170.608V177.764H174.494ZM171.19 178.298V183.024H174.526C175.486 183.024 176.241 182.82 176.76 182.412C177.279 182.004 177.547 181.423 177.547 180.653C177.547 179.9 177.279 179.319 176.76 178.91C176.241 178.502 175.501 178.298 174.541 178.298H171.19Z"/>
<path d="M190.717 188.3H183.652V177.764H190.686V178.298H184.203V182.742H190.512V183.276H184.203V187.798H190.717V188.3Z"/>
<path d="M205.178 188.3H204.58L203.179 185.034H197.389L195.988 188.3H195.406L199.969 177.764H200.646L205.178 188.3ZM197.609 184.516H202.943L200.284 178.345L197.609 184.516Z"/>
<path d="M213.407 178.298V188.3H212.856V178.298H208.875V177.764H217.404V178.298H213.407Z"/>
<path d="M222.942 188.3H222.392V177.764H222.942V188.3Z"/>
<path d="M233.139 188.3H232.462L227.946 177.764H228.544L232.792 187.719L237.057 177.764H237.639L233.139 188.3Z"/>
<path d="M243.193 188.3H242.643V177.764H243.193V188.3Z"/>
<path d="M252.745 178.298V188.3H252.194V178.298H248.213V177.764H256.741V178.298H252.745Z"/>
<path d="M265.333 183.637V188.3H264.782V183.637L260.502 177.764H261.178L265.049 183.103L268.936 177.764H269.597L265.333 183.637Z"/>
<path d="M43.6731 197.188C97.8803 197.188 117.313 167.307 117.313 130.831C117.329 94.3707 97.8803 64.9922 43.6731 64.9922C-11.0376 64.9922 -29.9668 94.3707 -29.9668 130.831C-29.9668 167.307 -11.0376 197.188 43.6731 197.188Z"/>
<path d="M105.528 76.4076L105.512 69.0276L102.538 69.0433V68.2739L109.304 68.2582V69.0276L106.346 69.0433L106.362 76.4233L105.528 76.4076ZM118.729 76.3762L118.698 69.3887L115.661 75.4183H114.827L111.743 69.4044L111.759 76.3919H110.925L110.909 68.2425H112.042L115.252 74.4448L118.399 68.2268H119.532L119.547 76.3762H118.729Z"/>
</mask>
<path d="M175.108 93.7583C191.535 93.7583 200.551 103.368 201.511 113.543H187.019C187.019 113.543 184.234 106.226 174.73 106.32C167.335 106.32 162.252 110.701 162.252 118.583C162.158 126.387 167.146 131.616 174.935 131.616C184.156 131.71 187.318 124.393 187.318 124.393H201.826C200.19 135.133 191.173 144.272 175.423 144.272C159.294 144.272 148.925 134.568 148.925 118.693C148.925 102.818 159.263 93.7583 175.108 93.7583Z" stroke="white" stroke-width="6" mask="url(#path-4-inside-1_208_2501)"/>
<path d="M236.097 93.7583C253.279 93.7583 264.325 104.122 264.325 118.96C264.325 133.893 253.279 144.256 236.097 144.256C218.914 144.256 207.868 134.646 207.868 118.96C207.868 103.274 218.898 93.7583 236.097 93.7583ZM236.097 131.428C246.277 131.428 249.928 125.822 249.928 118.976C249.928 112.13 246.277 106.618 236.097 106.618C225.822 106.618 222.266 112.13 222.266 118.976C222.266 125.806 225.822 131.428 236.097 131.428Z" stroke="white" stroke-width="6" mask="url(#path-4-inside-1_208_2501)"/>
<path d="M297.841 93.7583C315.024 93.7583 326.07 104.122 326.07 118.96C326.07 133.893 315.024 144.256 297.841 144.256C280.658 144.256 269.612 134.646 269.612 118.96C269.612 103.274 280.658 93.7583 297.841 93.7583ZM297.841 131.428C308.022 131.428 311.672 125.822 311.672 118.976C311.672 112.13 308.022 106.618 297.841 106.618C287.566 106.618 284.01 112.13 284.01 118.976C284.01 125.806 287.566 131.428 297.841 131.428Z" stroke="white" stroke-width="6" mask="url(#path-4-inside-1_208_2501)"/>
<path d="M332.6 73.7853H346.132V125.241C346.132 129.229 347.957 130.376 352.473 130.376H358.043V142.733H350.459C339.13 142.733 332.6 138.352 332.6 131.223V73.7853Z" stroke="white" stroke-width="6" mask="url(#path-4-inside-1_208_2501)"/>
<path d="M394.737 93.7583C411.92 93.7583 422.966 104.122 422.966 118.96C422.966 133.893 411.92 144.256 394.737 144.256C377.555 144.256 366.509 134.646 366.509 118.96C366.509 103.274 377.555 93.7583 394.737 93.7583ZM394.737 131.428C404.918 131.428 408.569 125.822 408.569 118.976C408.569 112.13 404.918 106.618 394.737 106.618C384.462 106.618 380.906 112.13 380.906 118.976C380.906 125.806 384.462 131.428 394.737 131.428Z" stroke="white" stroke-width="6" mask="url(#path-4-inside-1_208_2501)"/>
<path d="M156.792 165.878V170.243H156.242V159.707H160.081C161.245 159.707 162.142 159.974 162.819 160.523C163.48 161.057 163.81 161.827 163.81 162.8C163.81 163.774 163.48 164.527 162.803 165.077C162.142 165.627 161.23 165.893 160.081 165.893H156.792V165.878ZM156.792 160.225V165.344H160.065C161.056 165.344 161.827 165.124 162.378 164.684C162.945 164.245 163.212 163.617 163.212 162.784C163.212 161.968 162.929 161.34 162.378 160.9C161.827 160.461 161.041 160.241 160.065 160.241H156.792V160.225Z" stroke="white" stroke-width="6" mask="url(#path-4-inside-1_208_2501)"/>
<path d="M171.347 160.288C172.165 159.848 173.062 159.613 174.069 159.613C175.061 159.613 175.973 159.832 176.791 160.288C177.61 160.728 178.255 161.371 178.727 162.188C179.199 163.004 179.435 163.931 179.435 164.967C179.435 166.003 179.199 166.93 178.727 167.746C178.255 168.563 177.61 169.191 176.791 169.646C175.973 170.086 175.076 170.321 174.069 170.321C173.078 170.321 172.165 170.102 171.347 169.646C170.529 169.207 169.884 168.563 169.412 167.746C168.94 166.93 168.704 166.003 168.704 164.967C168.704 163.931 168.94 163.004 169.412 162.188C169.884 161.356 170.529 160.728 171.347 160.288ZM174.069 160.147C173.188 160.147 172.386 160.351 171.662 160.743C170.938 161.136 170.372 161.701 169.947 162.439C169.522 163.177 169.317 164.025 169.317 164.967C169.317 165.909 169.522 166.757 169.947 167.495C170.372 168.233 170.938 168.798 171.662 169.191C172.386 169.583 173.188 169.788 174.069 169.788C174.73 169.788 175.344 169.678 175.926 169.442C176.508 169.207 177.012 168.893 177.437 168.469C177.861 168.06 178.208 167.542 178.444 166.946C178.695 166.333 178.821 165.689 178.821 164.983C178.821 164.276 178.695 163.617 178.444 163.02C178.192 162.408 177.861 161.905 177.437 161.497C177.012 161.089 176.508 160.759 175.926 160.523C175.344 160.272 174.73 160.147 174.069 160.147Z" stroke="white" stroke-width="6" mask="url(#path-4-inside-1_208_2501)"/>
<path d="M195.752 170.243H195.076L191.63 160.445L188.184 170.243H187.507L183.794 159.707H184.392L187.853 169.615L191.331 159.707H191.944L195.422 169.615L198.883 159.707H199.45L195.752 170.243Z" stroke="white" stroke-width="6" mask="url(#path-4-inside-1_208_2501)"/>
<path d="M211.723 170.243H204.658V159.707H211.692V160.241H205.209V164.684H211.519V165.218H205.209V169.74H211.723V170.243Z" stroke="white" stroke-width="6" mask="url(#path-4-inside-1_208_2501)"/>
<path d="M221.589 159.691C222.738 159.691 223.619 159.942 224.248 160.445C224.878 160.947 225.192 161.654 225.192 162.565C225.192 163.475 224.878 164.182 224.233 164.684C223.587 165.187 222.706 165.454 221.589 165.454H220.881L225.13 170.227H224.421L220.22 165.454H218.269V170.227H217.718V159.691H221.589ZM218.269 160.225V164.951H221.605C222.565 164.951 223.32 164.747 223.839 164.339C224.359 163.931 224.626 163.35 224.626 162.58C224.626 161.827 224.359 161.246 223.839 160.837C223.32 160.429 222.58 160.225 221.621 160.225H218.269Z" stroke="white" stroke-width="6" mask="url(#path-4-inside-1_208_2501)"/>
<path d="M237.812 170.243H230.747V159.707H237.78V160.241H231.298V164.684H237.607V165.218H231.298V169.74H237.812V170.243Z" stroke="white" stroke-width="6" mask="url(#path-4-inside-1_208_2501)"/>
<path d="M247.473 159.691C249.283 159.691 250.715 160.162 251.737 161.104C252.776 162.046 253.295 163.334 253.295 164.967C253.295 166.6 252.776 167.888 251.737 168.83C250.699 169.772 249.283 170.243 247.473 170.243H243.791V159.707H247.473V159.691ZM244.342 160.225V169.693H247.473C249.141 169.693 250.431 169.269 251.344 168.437C252.257 167.589 252.713 166.443 252.713 164.967C252.713 163.491 252.257 162.329 251.344 161.497C250.431 160.649 249.141 160.241 247.473 160.241H244.342V160.225Z" stroke="white" stroke-width="6" mask="url(#path-4-inside-1_208_2501)"/>
<path d="M270.006 159.691C271.139 159.691 272.036 159.911 272.681 160.351C273.326 160.79 273.641 161.466 273.641 162.392C273.641 162.989 273.483 163.491 273.169 163.899C272.854 164.308 272.413 164.622 271.831 164.81C272.476 164.998 272.964 165.328 273.326 165.752C273.672 166.192 273.845 166.726 273.845 167.385C273.845 168.343 273.515 169.05 272.87 169.521C272.224 169.992 271.312 170.212 270.147 170.212H265.93V159.675H270.006V159.691ZM266.497 164.575H269.99C272.036 164.575 273.058 163.852 273.058 162.392C273.058 160.947 272.036 160.209 269.99 160.209H266.497V164.575ZM266.497 165.108V169.709H270.132C272.224 169.709 273.263 168.94 273.263 167.401C273.263 165.878 272.224 165.108 270.132 165.108H266.497Z" stroke="white" stroke-width="6" mask="url(#path-4-inside-1_208_2501)"/>
<path d="M282.547 165.579V170.243H281.996V165.579L277.716 159.707H278.393L282.263 165.046L286.15 159.707H286.811L282.547 165.579Z" stroke="white" stroke-width="6" mask="url(#path-4-inside-1_208_2501)"/>
<path d="M160.789 177.686C161.67 177.686 162.488 177.874 163.259 178.267C164.015 178.644 164.597 179.177 165.006 179.837L164.534 180.151C164.156 179.554 163.621 179.083 162.96 178.738C162.3 178.392 161.576 178.22 160.789 178.22C159.908 178.22 159.105 178.424 158.382 178.816C157.658 179.209 157.091 179.774 156.666 180.512C156.242 181.25 156.037 182.098 156.037 183.04C156.037 183.982 156.242 184.83 156.666 185.568C157.091 186.306 157.658 186.871 158.382 187.264C159.105 187.657 159.908 187.861 160.789 187.861C161.576 187.861 162.3 187.688 162.96 187.342C163.621 186.997 164.156 186.526 164.534 185.929L164.99 186.259C164.55 186.919 163.967 187.437 163.212 187.814C162.473 188.19 161.654 188.379 160.773 188.379C159.782 188.379 158.869 188.159 158.051 187.704C157.233 187.264 156.588 186.62 156.116 185.804C155.644 184.987 155.408 184.061 155.408 183.024C155.408 181.988 155.644 181.062 156.116 180.245C156.588 179.429 157.233 178.801 158.051 178.345C158.901 177.906 159.798 177.686 160.789 177.686Z" stroke="white" stroke-width="6" mask="url(#path-4-inside-1_208_2501)"/>
<path d="M174.494 177.764C175.643 177.764 176.524 178.015 177.153 178.518C177.783 179.02 178.097 179.727 178.097 180.638C178.097 181.548 177.783 182.255 177.138 182.757C176.493 183.26 175.611 183.527 174.494 183.527H173.786L178.035 188.3H177.326L173.11 183.527H171.158V188.3H170.608V177.764H174.494ZM171.19 178.298V183.024H174.526C175.486 183.024 176.241 182.82 176.76 182.412C177.279 182.004 177.547 181.423 177.547 180.653C177.547 179.9 177.279 179.319 176.76 178.91C176.241 178.502 175.501 178.298 174.541 178.298H171.19Z" stroke="white" stroke-width="6" mask="url(#path-4-inside-1_208_2501)"/>
<path d="M190.717 188.3H183.652V177.764H190.686V178.298H184.203V182.742H190.512V183.276H184.203V187.798H190.717V188.3Z" stroke="white" stroke-width="6" mask="url(#path-4-inside-1_208_2501)"/>
<path d="M205.178 188.3H204.58L203.179 185.034H197.389L195.988 188.3H195.406L199.969 177.764H200.646L205.178 188.3ZM197.609 184.516H202.943L200.284 178.345L197.609 184.516Z" stroke="white" stroke-width="6" mask="url(#path-4-inside-1_208_2501)"/>
<path d="M213.407 178.298V188.3H212.856V178.298H208.875V177.764H217.404V178.298H213.407Z" stroke="white" stroke-width="6" mask="url(#path-4-inside-1_208_2501)"/>
<path d="M222.942 188.3H222.392V177.764H222.942V188.3Z" stroke="white" stroke-width="6" mask="url(#path-4-inside-1_208_2501)"/>
<path d="M233.139 188.3H232.462L227.946 177.764H228.544L232.792 187.719L237.057 177.764H237.639L233.139 188.3Z" stroke="white" stroke-width="6" mask="url(#path-4-inside-1_208_2501)"/>
<path d="M243.193 188.3H242.643V177.764H243.193V188.3Z" stroke="white" stroke-width="6" mask="url(#path-4-inside-1_208_2501)"/>
<path d="M252.745 178.298V188.3H252.194V178.298H248.213V177.764H256.741V178.298H252.745Z" stroke="white" stroke-width="6" mask="url(#path-4-inside-1_208_2501)"/>
<path d="M265.333 183.637V188.3H264.782V183.637L260.502 177.764H261.178L265.049 183.103L268.936 177.764H269.597L265.333 183.637Z" stroke="white" stroke-width="6" mask="url(#path-4-inside-1_208_2501)"/>
<path d="M43.6731 197.188C97.8803 197.188 117.313 167.307 117.313 130.831C117.329 94.3707 97.8803 64.9922 43.6731 64.9922C-11.0376 64.9922 -29.9668 94.3707 -29.9668 130.831C-29.9668 167.307 -11.0376 197.188 43.6731 197.188Z" stroke="white" stroke-width="6" mask="url(#path-4-inside-1_208_2501)"/>
<path d="M105.528 76.4076L105.512 69.0276L102.538 69.0433V68.2739L109.304 68.2582V69.0276L106.346 69.0433L106.362 76.4233L105.528 76.4076ZM118.729 76.3762L118.698 69.3887L115.661 75.4183H114.827L111.743 69.4044L111.759 76.3919H110.925L110.909 68.2425H112.042L115.252 74.4448L118.399 68.2268H119.532L119.547 76.3762H118.729Z" stroke="white" stroke-width="6" mask="url(#path-4-inside-1_208_2501)"/>
</g>
<path d="M353.059 547.439L353.059 417.646" stroke="#9D9D9D" stroke-width="2"/>
<path d="M350.125 422.793C350.125 421.809 350.273 420.926 350.57 420.145C350.867 419.363 351.289 418.702 351.836 418.16C352.383 417.613 353.047 417.197 353.828 416.91C354.609 416.624 355.484 416.48 356.453 416.48C357.422 416.48 358.297 416.624 359.078 416.91C359.859 417.197 360.523 417.613 361.07 418.16C361.617 418.702 362.039 419.363 362.336 420.145C362.633 420.926 362.781 421.809 362.781 422.793C362.781 423.777 362.633 424.66 362.336 425.441C362.039 426.223 361.617 426.884 361.07 427.426C360.523 427.967 359.859 428.382 359.078 428.668C358.297 428.954 357.422 429.098 356.453 429.098C355.484 429.098 354.609 428.954 353.828 428.668C353.047 428.382 352.383 427.967 351.836 427.426C351.289 426.884 350.867 426.223 350.57 425.441C350.273 424.66 350.125 423.777 350.125 422.793ZM352.602 422.785C352.602 423.452 352.69 424.04 352.867 424.551C353.049 425.061 353.307 425.491 353.641 425.84C353.974 426.184 354.378 426.447 354.852 426.629C355.326 426.806 355.859 426.895 356.453 426.895C357.047 426.895 357.581 426.806 358.055 426.629C358.529 426.447 358.932 426.184 359.266 425.84C359.599 425.491 359.854 425.061 360.031 424.551C360.214 424.04 360.305 423.452 360.305 422.785C360.305 422.124 360.214 421.54 360.031 421.035C359.854 420.525 359.599 420.095 359.266 419.746C358.932 419.397 358.529 419.134 358.055 418.957C357.581 418.775 357.047 418.684 356.453 418.684C355.859 418.684 355.326 418.775 354.852 418.957C354.378 419.134 353.974 419.397 353.641 419.746C353.307 420.095 353.049 420.525 352.867 421.035C352.69 421.54 352.602 422.124 352.602 422.785ZM350.609 454.145L357.75 446.715H360.227V454.145H362.859V456.316H360.227V458.926H357.75V456.316H350.594L350.609 454.145ZM357.75 454.145V449.848L353.578 454.145H357.75Z" fill="white"/>
<line x1="343.973" y1="309.73" x2="48.1287" y2="309.73" stroke="white" stroke-opacity="0.5"/>
<line x1="343.973" y1="314.723" x2="48.1287" y2="314.723" stroke="white" stroke-opacity="0.5"/>
<line x1="343.973" y1="319.715" x2="48.1287" y2="319.715" stroke="white" stroke-opacity="0.5"/>
<line x1="343.973" y1="324.707" x2="48.1287" y2="324.707" stroke="white" stroke-opacity="0.5"/>
<line x1="343.973" y1="329.699" x2="48.1287" y2="329.699" stroke="white" stroke-opacity="0.5"/>
<line x1="343.973" y1="334.691" x2="48.1287" y2="334.691" stroke="white" stroke-opacity="0.5"/>
<line x1="343.973" y1="339.684" x2="48.1287" y2="339.684" stroke="white" stroke-opacity="0.5"/>
<line x1="343.973" y1="344.676" x2="48.1287" y2="344.676" stroke="white" stroke-opacity="0.5"/>
<line x1="343.973" y1="349.666" x2="48.1287" y2="349.666" stroke="white" stroke-opacity="0.5"/>
<line x1="343.973" y1="354.658" x2="48.1287" y2="354.658" stroke="white" stroke-opacity="0.5"/>
<line x1="343.973" y1="359.65" x2="48.1287" y2="359.65" stroke="white" stroke-opacity="0.5"/>
<line x1="343.973" y1="364.643" x2="48.1287" y2="364.643" stroke="white" stroke-opacity="0.5"/>
<line x1="343.973" y1="369.635" x2="48.1287" y2="369.635" stroke="white" stroke-opacity="0.5"/>
<line x1="343.973" y1="374.627" x2="48.1287" y2="374.627" stroke="white" stroke-opacity="0.5"/>
<line x1="343.973" y1="379.619" x2="48.1287" y2="379.619" stroke="white" stroke-opacity="0.5"/>
<rect x="156.902" y="295.043" width="14.1879" height="14.1879" fill="#E33AB1"/>
<path d="M161.579 303.371H163.659V297.67C163.386 297.732 163.122 297.814 162.868 297.916C162.618 298.018 162.39 298.141 162.182 298.285L161.268 296.979C161.604 296.768 161.946 296.59 162.294 296.445C162.645 296.297 162.999 296.18 163.354 296.094C163.714 296.004 164.073 295.939 164.432 295.9C164.796 295.861 165.157 295.842 165.516 295.842L165.511 295.854H165.516V303.371H167.503V305H161.579V303.371ZM163.038 323.348L159.516 318.842H161.79L164.222 321.994L166.665 318.842H168.903L165.317 323.33L169.026 328H166.747L164.14 324.707L161.474 328H159.229L163.038 323.348Z" fill="white"/>
<rect x="156.902" y="309.23" width="14.1879" height="69.8885" fill="#E33AB1" fill-opacity="0.2"/>
<rect x="264.362" y="306.078" width="3.15287" height="3.15287" fill="#E33AB1"/>
<path d="M261.319 310.385C261.319 309.646 261.43 308.984 261.653 308.398C261.875 307.812 262.192 307.316 262.602 306.91C263.012 306.5 263.51 306.188 264.096 305.973C264.682 305.758 265.338 305.65 266.065 305.65C266.791 305.65 267.448 305.758 268.034 305.973C268.619 306.188 269.118 306.5 269.528 306.91C269.938 307.316 270.254 307.812 270.477 308.398C270.7 308.984 270.811 309.646 270.811 310.385C270.811 311.123 270.7 311.785 270.477 312.371C270.254 312.957 269.938 313.453 269.528 313.859C269.118 314.266 268.619 314.576 268.034 314.791C267.448 315.006 266.791 315.113 266.065 315.113C265.338 315.113 264.682 315.006 264.096 314.791C263.51 314.576 263.012 314.266 262.602 313.859C262.192 313.453 261.875 312.957 261.653 312.371C261.43 311.785 261.319 311.123 261.319 310.385ZM263.176 310.379C263.176 310.879 263.243 311.32 263.375 311.703C263.512 312.086 263.705 312.408 263.955 312.67C264.205 312.928 264.508 313.125 264.864 313.262C265.219 313.395 265.619 313.461 266.065 313.461C266.51 313.461 266.91 313.395 267.266 313.262C267.621 313.125 267.924 312.928 268.174 312.67C268.424 312.408 268.616 312.086 268.748 311.703C268.885 311.32 268.953 310.879 268.953 310.379C268.953 309.883 268.885 309.445 268.748 309.066C268.616 308.684 268.424 308.361 268.174 308.1C267.924 307.838 267.621 307.641 267.266 307.508C266.91 307.371 266.51 307.303 266.065 307.303C265.619 307.303 265.219 307.371 264.864 307.508C264.508 307.641 264.205 307.838 263.955 308.1C263.705 308.361 263.512 308.684 263.375 309.066C263.243 309.445 263.176 309.883 263.176 310.379ZM264.676 336.971C264.676 336.814 264.707 336.668 264.77 336.531C264.836 336.391 264.93 336.27 265.051 336.168C265.172 336.062 265.319 335.98 265.491 335.922C265.662 335.863 265.856 335.834 266.071 335.834C266.285 335.834 266.479 335.863 266.651 335.922C266.823 335.98 266.967 336.062 267.084 336.168C267.205 336.27 267.297 336.391 267.36 336.531C267.426 336.668 267.459 336.814 267.459 336.971C267.459 337.127 267.426 337.275 267.36 337.416C267.297 337.553 267.205 337.672 267.084 337.773C266.967 337.875 266.823 337.955 266.651 338.014C266.479 338.076 266.285 338.107 266.071 338.107C265.856 338.107 265.662 338.076 265.491 338.014C265.319 337.955 265.172 337.875 265.051 337.773C264.93 337.672 264.836 337.553 264.77 337.416C264.707 337.275 264.676 337.127 264.676 336.971ZM262.35 359.391L265.578 357.176C266.063 356.844 266.459 356.555 266.768 356.309C267.076 356.062 267.319 355.844 267.494 355.652C267.67 355.457 267.791 355.281 267.858 355.125C267.924 354.969 267.957 354.812 267.957 354.656C267.957 354.477 267.92 354.309 267.846 354.152C267.772 353.996 267.655 353.859 267.494 353.742C267.338 353.625 267.135 353.533 266.885 353.467C266.639 353.4 266.344 353.367 266 353.367C265.5 353.367 265.002 353.438 264.506 353.578C264.01 353.719 263.504 353.943 262.989 354.252L262.133 352.846C262.707 352.49 263.328 352.213 263.996 352.014C264.668 351.814 265.373 351.715 266.112 351.715C266.756 351.715 267.315 351.793 267.787 351.949C268.264 352.102 268.657 352.311 268.965 352.576C269.278 352.842 269.51 353.15 269.662 353.502C269.815 353.854 269.891 354.227 269.891 354.621C269.891 354.926 269.84 355.217 269.739 355.494C269.637 355.771 269.459 356.059 269.205 356.355C268.951 356.652 268.608 356.973 268.174 357.316C267.744 357.656 267.201 358.043 266.545 358.477L265.209 359.355H270.225V360.984H262.35V359.391ZM264.981 379.332L261.459 374.826H263.733L266.164 377.979L268.608 374.826H270.846L267.26 379.314L270.969 383.984H268.69L266.082 380.691L263.416 383.984H261.172L264.981 379.332Z" fill="white"/>
<rect x="264.362" y="309.23" width="3.15287" height="69.8885" fill="#E33AB1" fill-opacity="0.2"/>
<rect x="280.653" y="304.502" width="4.7293" height="4.7293" fill="#E33AB1"/>
<path d="M278.265 309.334C278.265 308.596 278.377 307.934 278.599 307.348C278.822 306.762 279.139 306.266 279.549 305.859C279.959 305.449 280.457 305.137 281.043 304.922C281.629 304.707 282.285 304.6 283.012 304.6C283.738 304.6 284.394 304.707 284.98 304.922C285.566 305.137 286.064 305.449 286.474 305.859C286.885 306.266 287.201 306.762 287.424 307.348C287.646 307.934 287.758 308.596 287.758 309.334C287.758 310.072 287.646 310.734 287.424 311.32C287.201 311.906 286.885 312.402 286.474 312.809C286.064 313.215 285.566 313.525 284.98 313.74C284.394 313.955 283.738 314.062 283.012 314.062C282.285 314.062 281.629 313.955 281.043 313.74C280.457 313.525 279.959 313.215 279.549 312.809C279.139 312.402 278.822 311.906 278.599 311.32C278.377 310.734 278.265 310.072 278.265 309.334ZM280.123 309.328C280.123 309.828 280.189 310.27 280.322 310.652C280.459 311.035 280.652 311.357 280.902 311.619C281.152 311.877 281.455 312.074 281.81 312.211C282.166 312.344 282.566 312.41 283.012 312.41C283.457 312.41 283.857 312.344 284.213 312.211C284.568 312.074 284.871 311.877 285.121 311.619C285.371 311.357 285.562 311.035 285.695 310.652C285.832 310.27 285.9 309.828 285.9 309.328C285.9 308.832 285.832 308.395 285.695 308.016C285.562 307.633 285.371 307.311 285.121 307.049C284.871 306.787 284.568 306.59 284.213 306.457C283.857 306.32 283.457 306.252 283.012 306.252C282.566 306.252 282.166 306.32 281.81 306.457C281.455 306.59 281.152 306.787 280.902 307.049C280.652 307.311 280.459 307.633 280.322 308.016C280.189 308.395 280.123 308.832 280.123 309.328ZM281.623 335.92C281.623 335.764 281.654 335.617 281.717 335.48C281.783 335.34 281.877 335.219 281.998 335.117C282.119 335.012 282.265 334.93 282.437 334.871C282.609 334.812 282.803 334.783 283.017 334.783C283.232 334.783 283.426 334.812 283.598 334.871C283.769 334.93 283.914 335.012 284.031 335.117C284.152 335.219 284.244 335.34 284.306 335.48C284.373 335.617 284.406 335.764 284.406 335.92C284.406 336.076 284.373 336.225 284.306 336.365C284.244 336.502 284.152 336.621 284.031 336.723C283.914 336.824 283.769 336.904 283.598 336.963C283.426 337.025 283.232 337.057 283.017 337.057C282.803 337.057 282.609 337.025 282.437 336.963C282.265 336.904 282.119 336.824 281.998 336.723C281.877 336.621 281.783 336.502 281.717 336.365C281.654 336.225 281.623 336.076 281.623 335.92ZM278.664 355.609C278.664 354.777 278.787 354.053 279.033 353.436C279.283 352.814 279.623 352.299 280.053 351.889C280.486 351.479 280.996 351.172 281.582 350.969C282.168 350.766 282.801 350.664 283.48 350.664C283.765 350.664 284.055 350.68 284.348 350.711C284.644 350.738 284.935 350.783 285.221 350.846C285.506 350.908 285.781 350.99 286.047 351.092C286.316 351.189 286.566 351.307 286.797 351.443L285.971 352.85C285.799 352.752 285.615 352.67 285.42 352.604C285.228 352.533 285.029 352.479 284.822 352.439C284.615 352.396 284.406 352.365 284.195 352.346C283.984 352.326 283.777 352.316 283.574 352.316C283.121 352.316 282.711 352.375 282.344 352.492C281.98 352.609 281.666 352.775 281.4 352.99C281.135 353.205 280.922 353.463 280.762 353.764C280.605 354.061 280.508 354.391 280.469 354.754C280.672 354.594 280.896 354.455 281.142 354.338C281.389 354.221 281.648 354.125 281.922 354.051C282.199 353.973 282.482 353.916 282.771 353.881C283.064 353.842 283.357 353.822 283.65 353.822C284.221 353.822 284.738 353.891 285.203 354.027C285.672 354.164 286.072 354.361 286.404 354.619C286.736 354.877 286.992 355.191 287.172 355.562C287.355 355.93 287.447 356.348 287.447 356.816C287.447 357.277 287.355 357.705 287.172 358.1C286.992 358.494 286.724 358.838 286.369 359.131C286.014 359.42 285.572 359.648 285.045 359.816C284.517 359.98 283.906 360.062 283.211 360.062C282.535 360.062 281.918 359.977 281.359 359.805C280.801 359.633 280.322 359.365 279.924 359.002C279.525 358.639 279.215 358.178 278.992 357.619C278.773 357.057 278.664 356.387 278.664 355.609ZM280.51 356.471C280.603 357.111 280.885 357.596 281.353 357.924C281.822 358.248 282.437 358.41 283.199 358.41C283.582 358.41 283.922 358.371 284.219 358.293C284.515 358.215 284.765 358.107 284.969 357.971C285.172 357.83 285.326 357.664 285.431 357.473C285.537 357.281 285.59 357.072 285.59 356.846C285.59 356.654 285.549 356.475 285.467 356.307C285.385 356.139 285.256 355.994 285.08 355.873C284.908 355.748 284.685 355.65 284.412 355.58C284.139 355.506 283.808 355.469 283.422 355.469C283.098 355.469 282.791 355.494 282.502 355.545C282.213 355.596 281.945 355.666 281.699 355.756C281.453 355.846 281.228 355.951 281.025 356.072C280.826 356.193 280.654 356.326 280.51 356.471ZM281.928 378.281L278.406 373.775H280.68L283.111 376.928L285.555 373.775H287.793L284.207 378.264L287.916 382.934H285.637L283.029 379.641L280.363 382.934H278.119L281.928 378.281Z" fill="white"/>
<rect x="280.653" y="309.232" width="4.7293" height="69.8885" fill="#E33AB1" fill-opacity="0.2"/>
<rect x="42.6113" y="374.391" width="4.7293" height="4.99204" fill="#EAEAEA"/>
<path d="M32.9684 388.762H35.0485V383.061C34.7751 383.123 34.5114 383.205 34.2575 383.307C34.0075 383.408 33.779 383.531 33.5719 383.676L32.6579 382.369C32.9938 382.158 33.3356 381.98 33.6833 381.836C34.0348 381.688 34.3883 381.57 34.7438 381.484C35.1032 381.395 35.4626 381.33 35.8219 381.291C36.1852 381.252 36.5466 381.232 36.9059 381.232L36.9001 381.244H36.9059V388.762H38.8923V390.391H32.9684V388.762ZM30.7653 408.791C30.7653 408.053 30.8766 407.391 31.0993 406.805C31.3219 406.219 31.6383 405.723 32.0485 405.316C32.4587 404.906 32.9567 404.594 33.5426 404.379C34.1286 404.164 34.7848 404.057 35.5114 404.057C36.238 404.057 36.8942 404.164 37.4801 404.379C38.0661 404.594 38.5641 404.906 38.9743 405.316C39.3844 405.723 39.7008 406.219 39.9235 406.805C40.1462 407.391 40.2575 408.053 40.2575 408.791C40.2575 409.529 40.1462 410.191 39.9235 410.777C39.7008 411.363 39.3844 411.859 38.9743 412.266C38.5641 412.672 38.0661 412.982 37.4801 413.197C36.8942 413.412 36.238 413.52 35.5114 413.52C34.7848 413.52 34.1286 413.412 33.5426 413.197C32.9567 412.982 32.4587 412.672 32.0485 412.266C31.6383 411.859 31.3219 411.363 31.0993 410.777C30.8766 410.191 30.7653 409.529 30.7653 408.791ZM32.6227 408.785C32.6227 409.285 32.6891 409.727 32.8219 410.109C32.9587 410.492 33.152 410.814 33.402 411.076C33.652 411.334 33.9548 411.531 34.3102 411.668C34.6657 411.801 35.0661 411.867 35.5114 411.867C35.9567 411.867 36.3571 411.801 36.7126 411.668C37.068 411.531 37.3708 411.334 37.6208 411.076C37.8708 410.814 38.0622 410.492 38.195 410.109C38.3317 409.727 38.4001 409.285 38.4001 408.785C38.4001 408.289 38.3317 407.852 38.195 407.473C38.0622 407.09 37.8708 406.768 37.6208 406.506C37.3708 406.244 37.068 406.047 36.7126 405.914C36.3571 405.777 35.9567 405.709 35.5114 405.709C35.0661 405.709 34.6657 405.777 34.3102 405.914C33.9548 406.047 33.652 406.244 33.402 406.506C33.152 406.768 32.9587 407.09 32.8219 407.473C32.6891 407.852 32.6227 408.289 32.6227 408.785ZM32.277 431.791C31.9333 431.791 31.6149 431.734 31.3219 431.621C31.0329 431.508 30.7829 431.35 30.5719 431.146C30.361 430.939 30.1969 430.691 30.0798 430.402C29.9626 430.109 29.904 429.783 29.904 429.424C29.904 429.068 29.9626 428.744 30.0798 428.451C30.1969 428.158 30.361 427.91 30.5719 427.707C30.7829 427.5 31.0329 427.34 31.3219 427.227C31.6149 427.113 31.9333 427.057 32.277 427.057C32.6208 427.057 32.9372 427.113 33.2262 427.227C33.5192 427.34 33.7712 427.5 33.9821 427.707C34.193 427.91 34.3571 428.158 34.4743 428.451C34.5915 428.744 34.6501 429.068 34.6501 429.424C34.6501 429.783 34.5915 430.109 34.4743 430.402C34.3571 430.691 34.193 430.939 33.9821 431.146C33.7712 431.35 33.5192 431.508 33.2262 431.621C32.9372 431.734 32.6208 431.791 32.277 431.791ZM38.3239 427.168H40.1227L32.7692 436.391H30.9704L38.3239 427.168ZM32.277 430.596C32.4255 430.596 32.5641 430.568 32.693 430.514C32.8258 430.455 32.9411 430.375 33.0387 430.273C33.1364 430.168 33.2126 430.043 33.2673 429.898C33.3258 429.754 33.3551 429.596 33.3551 429.424C33.3551 429.252 33.3258 429.094 33.2673 428.949C33.2126 428.805 33.1364 428.682 33.0387 428.58C32.9411 428.475 32.8258 428.395 32.693 428.34C32.5641 428.281 32.4255 428.252 32.277 428.252C32.1286 428.252 31.988 428.281 31.8551 428.34C31.7262 428.395 31.613 428.475 31.5153 428.58C31.4176 428.682 31.3395 428.805 31.2809 428.949C31.2262 429.094 31.1989 429.252 31.1989 429.424C31.1989 429.596 31.2262 429.754 31.2809 429.898C31.3395 430.043 31.4176 430.168 31.5153 430.273C31.613 430.375 31.7262 430.455 31.8551 430.514C31.988 430.568 32.1286 430.596 32.277 430.596ZM36.3844 434.146C36.3844 433.791 36.443 433.467 36.5602 433.174C36.6774 432.881 36.8415 432.633 37.0524 432.43C37.2633 432.223 37.5133 432.062 37.8024 431.949C38.0954 431.836 38.4137 431.779 38.7575 431.779C39.1012 431.779 39.4176 431.836 39.7067 431.949C39.9997 432.062 40.2516 432.223 40.4626 432.43C40.6735 432.633 40.8376 432.881 40.9548 433.174C41.0719 433.467 41.1305 433.791 41.1305 434.146C41.1305 434.506 41.0719 434.832 40.9548 435.125C40.8376 435.414 40.6735 435.662 40.4626 435.869C40.2516 436.072 39.9997 436.23 39.7067 436.344C39.4176 436.457 39.1012 436.514 38.7575 436.514C38.4137 436.514 38.0954 436.457 37.8024 436.344C37.5133 436.23 37.2633 436.072 37.0524 435.869C36.8415 435.662 36.6774 435.414 36.5602 435.125C36.443 434.832 36.3844 434.506 36.3844 434.146ZM37.6794 434.146C37.6794 434.318 37.7067 434.477 37.7614 434.621C37.82 434.766 37.8981 434.891 37.9958 434.996C38.0934 435.098 38.2067 435.178 38.3356 435.236C38.4684 435.291 38.6091 435.318 38.7575 435.318C38.9059 435.318 39.0446 435.291 39.1735 435.236C39.3063 435.178 39.4216 435.098 39.5192 434.996C39.6169 434.891 39.693 434.766 39.7477 434.621C39.8063 434.477 39.8356 434.318 39.8356 434.146C39.8356 433.975 39.8063 433.816 39.7477 433.672C39.693 433.527 39.6169 433.404 39.5192 433.303C39.4216 433.197 39.3063 433.117 39.1735 433.062C39.0446 433.004 38.9059 432.975 38.7575 432.975C38.6091 432.975 38.4684 433.004 38.3356 433.062C38.2067 433.117 38.0934 433.197 37.9958 433.303C37.8981 433.404 37.82 433.527 37.7614 433.672C37.7067 433.816 37.6794 433.975 37.6794 434.146Z" fill="#EAEAEA"/>
<rect x="42.6113" y="359.15" width="4.7293" height="20.4936" fill="#BDBDBD"/>
<path d="M31.928 377.76L35.1565 375.545C35.6409 375.213 36.0373 374.924 36.3459 374.678C36.6545 374.432 36.8967 374.213 37.0725 374.021C37.2483 373.826 37.3694 373.65 37.4358 373.494C37.5022 373.338 37.5354 373.182 37.5354 373.025C37.5354 372.846 37.4983 372.678 37.4241 372.521C37.3498 372.365 37.2327 372.229 37.0725 372.111C36.9162 371.994 36.7131 371.902 36.4631 371.836C36.217 371.77 35.9221 371.736 35.5784 371.736C35.0784 371.736 34.5803 371.807 34.0842 371.947C33.5881 372.088 33.0823 372.312 32.5666 372.621L31.7112 371.215C32.2854 370.859 32.9065 370.582 33.5744 370.383C34.2463 370.184 34.9514 370.084 35.6897 370.084C36.3342 370.084 36.8928 370.162 37.3655 370.318C37.842 370.471 38.2346 370.68 38.5432 370.945C38.8557 371.211 39.0881 371.52 39.2405 371.871C39.3928 372.223 39.469 372.596 39.469 372.99C39.469 373.295 39.4182 373.586 39.3166 373.863C39.2151 374.141 39.0373 374.428 38.7834 374.725C38.5295 375.021 38.1858 375.342 37.7522 375.686C37.3225 376.025 36.7795 376.412 36.1233 376.846L34.7873 377.725H39.803V379.354H31.928V377.76ZM32.1916 400.174C32.4143 400.287 32.6545 400.385 32.9123 400.467C33.1741 400.545 33.4416 400.611 33.7151 400.666C33.9924 400.721 34.2698 400.762 34.5471 400.789C34.8284 400.812 35.1018 400.824 35.3674 400.824C35.8362 400.824 36.2405 400.791 36.5803 400.725C36.9241 400.654 37.2053 400.557 37.4241 400.432C37.6467 400.307 37.8108 400.158 37.9162 399.986C38.0256 399.811 38.0803 399.617 38.0803 399.406C38.0803 399.191 38.0237 398.994 37.9104 398.814C37.801 398.635 37.635 398.48 37.4123 398.352C37.1936 398.223 36.9162 398.123 36.5803 398.053C36.2483 397.979 35.8596 397.941 35.4143 397.941C35.2151 397.941 34.9905 397.951 34.7405 397.971C34.4905 397.986 34.2248 398.014 33.9436 398.053C33.6623 398.092 33.3694 398.146 33.0647 398.217C32.76 398.283 32.4514 398.365 32.1389 398.463V393.195H39.1643V394.842H33.8557V396.617C34.1487 396.551 34.4553 396.496 34.7756 396.453C35.0959 396.406 35.4534 396.383 35.8479 396.383C36.4924 396.383 37.0686 396.453 37.5764 396.594C38.0842 396.734 38.5119 396.936 38.8596 397.197C39.2112 397.459 39.4787 397.775 39.6623 398.146C39.8459 398.514 39.9377 398.926 39.9377 399.383C39.9377 399.855 39.8381 400.283 39.6389 400.666C39.4436 401.045 39.1526 401.369 38.7659 401.639C38.383 401.908 37.9104 402.115 37.3479 402.26C36.7893 402.404 36.1467 402.477 35.4202 402.477C35.0452 402.477 34.6721 402.455 34.301 402.412C33.9338 402.373 33.5764 402.316 33.2287 402.242C32.8811 402.164 32.5471 402.07 32.2268 401.961C31.9104 401.848 31.6135 401.721 31.3362 401.58L32.1916 400.174ZM32.4084 420.754C32.0647 420.754 31.7463 420.697 31.4534 420.584C31.1643 420.471 30.9143 420.312 30.7034 420.109C30.4924 419.902 30.3284 419.654 30.2112 419.365C30.094 419.072 30.0354 418.746 30.0354 418.387C30.0354 418.031 30.094 417.707 30.2112 417.414C30.3284 417.121 30.4924 416.873 30.7034 416.67C30.9143 416.463 31.1643 416.303 31.4534 416.189C31.7463 416.076 32.0647 416.02 32.4084 416.02C32.7522 416.02 33.0686 416.076 33.3577 416.189C33.6506 416.303 33.9026 416.463 34.1135 416.67C34.3244 416.873 34.4885 417.121 34.6057 417.414C34.7229 417.707 34.7815 418.031 34.7815 418.387C34.7815 418.746 34.7229 419.072 34.6057 419.365C34.4885 419.654 34.3244 419.902 34.1135 420.109C33.9026 420.312 33.6506 420.471 33.3577 420.584C33.0686 420.697 32.7522 420.754 32.4084 420.754ZM38.4553 416.131H40.2541L32.9006 425.354H31.1018L38.4553 416.131ZM32.4084 419.559C32.5569 419.559 32.6955 419.531 32.8244 419.477C32.9573 419.418 33.0725 419.338 33.1702 419.236C33.2678 419.131 33.344 419.006 33.3987 418.861C33.4573 418.717 33.4866 418.559 33.4866 418.387C33.4866 418.215 33.4573 418.057 33.3987 417.912C33.344 417.768 33.2678 417.645 33.1702 417.543C33.0725 417.438 32.9573 417.357 32.8244 417.303C32.6955 417.244 32.5569 417.215 32.4084 417.215C32.26 417.215 32.1194 417.244 31.9866 417.303C31.8577 417.357 31.7444 417.438 31.6467 417.543C31.5491 417.645 31.4709 417.768 31.4123 417.912C31.3577 418.057 31.3303 418.215 31.3303 418.387C31.3303 418.559 31.3577 418.717 31.4123 418.861C31.4709 419.006 31.5491 419.131 31.6467 419.236C31.7444 419.338 31.8577 419.418 31.9866 419.477C32.1194 419.531 32.26 419.559 32.4084 419.559ZM36.5159 423.109C36.5159 422.754 36.5744 422.43 36.6916 422.137C36.8088 421.844 36.9729 421.596 37.1838 421.393C37.3948 421.186 37.6448 421.025 37.9338 420.912C38.2268 420.799 38.5452 420.742 38.8889 420.742C39.2327 420.742 39.5491 420.799 39.8381 420.912C40.1311 421.025 40.383 421.186 40.594 421.393C40.8049 421.596 40.969 421.844 41.0862 422.137C41.2034 422.43 41.2619 422.754 41.2619 423.109C41.2619 423.469 41.2034 423.795 41.0862 424.088C40.969 424.377 40.8049 424.625 40.594 424.832C40.383 425.035 40.1311 425.193 39.8381 425.307C39.5491 425.42 39.2327 425.477 38.8889 425.477C38.5452 425.477 38.2268 425.42 37.9338 425.307C37.6448 425.193 37.3948 425.035 37.1838 424.832C36.9729 424.625 36.8088 424.377 36.6916 424.088C36.5744 423.795 36.5159 423.469 36.5159 423.109ZM37.8108 423.109C37.8108 423.281 37.8381 423.439 37.8928 423.584C37.9514 423.729 38.0295 423.854 38.1272 423.959C38.2248 424.061 38.3381 424.141 38.467 424.199C38.5998 424.254 38.7405 424.281 38.8889 424.281C39.0373 424.281 39.176 424.254 39.3049 424.199C39.4377 424.141 39.553 424.061 39.6506 423.959C39.7483 423.854 39.8244 423.729 39.8791 423.584C39.9377 423.439 39.967 423.281 39.967 423.109C39.967 422.938 39.9377 422.779 39.8791 422.635C39.8244 422.49 39.7483 422.367 39.6506 422.266C39.553 422.16 39.4377 422.08 39.3049 422.025C39.176 421.967 39.0373 421.938 38.8889 421.938C38.7405 421.938 38.5998 421.967 38.467 422.025C38.3381 422.08 38.2248 422.16 38.1272 422.266C38.0295 422.367 37.9514 422.49 37.8928 422.635C37.8381 422.779 37.8108 422.938 37.8108 423.109Z" fill="#BDBDBD"/>
<rect x="42.6113" y="344.176" width="4.7293" height="35.4697" fill="#989898"/>
<path d="M32.0603 361.938C32.283 362.051 32.5232 362.148 32.781 362.23C33.0427 362.309 33.3103 362.375 33.5837 362.43C33.8611 362.484 34.1384 362.525 34.4158 362.553C34.697 362.576 34.9705 362.588 35.2361 362.588C35.7048 362.588 36.1091 362.555 36.449 362.488C36.7927 362.418 37.074 362.32 37.2927 362.195C37.5154 362.07 37.6795 361.922 37.7849 361.75C37.8943 361.574 37.949 361.381 37.949 361.17C37.949 360.955 37.8923 360.758 37.7791 360.578C37.6697 360.398 37.5037 360.244 37.281 360.115C37.0623 359.986 36.7849 359.887 36.449 359.816C36.117 359.742 35.7283 359.705 35.283 359.705C35.0837 359.705 34.8591 359.715 34.6091 359.734C34.3591 359.75 34.0935 359.777 33.8123 359.816C33.531 359.855 33.238 359.91 32.9334 359.98C32.6287 360.047 32.3201 360.129 32.0076 360.227V354.959H39.033V356.605H33.7244V358.381C34.0173 358.314 34.324 358.26 34.6443 358.217C34.9646 358.17 35.322 358.146 35.7166 358.146C36.3611 358.146 36.9373 358.217 37.4451 358.357C37.9529 358.498 38.3806 358.699 38.7283 358.961C39.0798 359.223 39.3474 359.539 39.531 359.91C39.7146 360.277 39.8064 360.689 39.8064 361.146C39.8064 361.619 39.7068 362.047 39.5076 362.43C39.3123 362.809 39.0212 363.133 38.6345 363.402C38.2517 363.672 37.7791 363.879 37.2166 364.023C36.658 364.168 36.0154 364.24 35.2888 364.24C34.9138 364.24 34.5408 364.219 34.1697 364.176C33.8025 364.137 33.4451 364.08 33.0974 364.006C32.7498 363.928 32.4158 363.834 32.0955 363.725C31.7791 363.611 31.4822 363.484 31.2048 363.344L32.0603 361.938ZM30.7654 382.518C30.7654 381.779 30.8767 381.117 31.0994 380.531C31.322 379.945 31.6384 379.449 32.0486 379.043C32.4587 378.633 32.9568 378.32 33.5427 378.105C34.1287 377.891 34.7849 377.783 35.5115 377.783C36.238 377.783 36.8943 377.891 37.4802 378.105C38.0662 378.32 38.5642 378.633 38.9744 379.043C39.3845 379.449 39.7009 379.945 39.9236 380.531C40.1462 381.117 40.2576 381.779 40.2576 382.518C40.2576 383.256 40.1462 383.918 39.9236 384.504C39.7009 385.09 39.3845 385.586 38.9744 385.992C38.5642 386.398 38.0662 386.709 37.4802 386.924C36.8943 387.139 36.238 387.246 35.5115 387.246C34.7849 387.246 34.1287 387.139 33.5427 386.924C32.9568 386.709 32.4587 386.398 32.0486 385.992C31.6384 385.586 31.322 385.09 31.0994 384.504C30.8767 383.918 30.7654 383.256 30.7654 382.518ZM32.6228 382.512C32.6228 383.012 32.6892 383.453 32.822 383.836C32.9587 384.219 33.1521 384.541 33.4021 384.803C33.6521 385.061 33.9548 385.258 34.3103 385.395C34.6658 385.527 35.0662 385.594 35.5115 385.594C35.9568 385.594 36.3572 385.527 36.7127 385.395C37.0681 385.258 37.3709 385.061 37.6209 384.803C37.8709 384.541 38.0623 384.219 38.1951 383.836C38.3318 383.453 38.4002 383.012 38.4002 382.512C38.4002 382.016 38.3318 381.578 38.1951 381.199C38.0623 380.816 37.8709 380.494 37.6209 380.232C37.3709 379.971 37.0681 379.773 36.7127 379.641C36.3572 379.504 35.9568 379.436 35.5115 379.436C35.0662 379.436 34.6658 379.504 34.3103 379.641C33.9548 379.773 33.6521 379.971 33.4021 380.232C33.1521 380.494 32.9587 380.816 32.822 381.199C32.6892 381.578 32.6228 382.016 32.6228 382.512ZM32.2771 405.518C31.9334 405.518 31.615 405.461 31.322 405.348C31.033 405.234 30.783 405.076 30.572 404.873C30.3611 404.666 30.197 404.418 30.0798 404.129C29.9627 403.836 29.9041 403.51 29.9041 403.15C29.9041 402.795 29.9627 402.471 30.0798 402.178C30.197 401.885 30.3611 401.637 30.572 401.434C30.783 401.227 31.033 401.066 31.322 400.953C31.615 400.84 31.9334 400.783 32.2771 400.783C32.6209 400.783 32.9373 400.84 33.2263 400.953C33.5193 401.066 33.7712 401.227 33.9822 401.434C34.1931 401.637 34.3572 401.885 34.4744 402.178C34.5916 402.471 34.6502 402.795 34.6502 403.15C34.6502 403.51 34.5916 403.836 34.4744 404.129C34.3572 404.418 34.1931 404.666 33.9822 404.873C33.7712 405.076 33.5193 405.234 33.2263 405.348C32.9373 405.461 32.6209 405.518 32.2771 405.518ZM38.324 400.895H40.1228L32.7693 410.117H30.9705L38.324 400.895ZM32.2771 404.322C32.4255 404.322 32.5642 404.295 32.6931 404.24C32.8259 404.182 32.9412 404.102 33.0388 404C33.1365 403.895 33.2127 403.77 33.2673 403.625C33.3259 403.48 33.3552 403.322 33.3552 403.15C33.3552 402.979 33.3259 402.82 33.2673 402.676C33.2127 402.531 33.1365 402.408 33.0388 402.307C32.9412 402.201 32.8259 402.121 32.6931 402.066C32.5642 402.008 32.4255 401.979 32.2771 401.979C32.1287 401.979 31.988 402.008 31.8552 402.066C31.7263 402.121 31.613 402.201 31.5154 402.307C31.4177 402.408 31.3396 402.531 31.281 402.676C31.2263 402.82 31.199 402.979 31.199 403.15C31.199 403.322 31.2263 403.48 31.281 403.625C31.3396 403.77 31.4177 403.895 31.5154 404C31.613 404.102 31.7263 404.182 31.8552 404.24C31.988 404.295 32.1287 404.322 32.2771 404.322ZM36.3845 407.873C36.3845 407.518 36.4431 407.193 36.5603 406.9C36.6775 406.607 36.8416 406.359 37.0525 406.156C37.2634 405.949 37.5134 405.789 37.8025 405.676C38.0955 405.562 38.4138 405.506 38.7576 405.506C39.1013 405.506 39.4177 405.562 39.7068 405.676C39.9998 405.789 40.2517 405.949 40.4627 406.156C40.6736 406.359 40.8377 406.607 40.9548 406.9C41.072 407.193 41.1306 407.518 41.1306 407.873C41.1306 408.232 41.072 408.559 40.9548 408.852C40.8377 409.141 40.6736 409.389 40.4627 409.596C40.2517 409.799 39.9998 409.957 39.7068 410.07C39.4177 410.184 39.1013 410.24 38.7576 410.24C38.4138 410.24 38.0955 410.184 37.8025 410.07C37.5134 409.957 37.2634 409.799 37.0525 409.596C36.8416 409.389 36.6775 409.141 36.5603 408.852C36.4431 408.559 36.3845 408.232 36.3845 407.873ZM37.6795 407.873C37.6795 408.045 37.7068 408.203 37.7615 408.348C37.8201 408.492 37.8982 408.617 37.9959 408.723C38.0935 408.824 38.2068 408.904 38.3357 408.963C38.4685 409.018 38.6091 409.045 38.7576 409.045C38.906 409.045 39.0447 409.018 39.1736 408.963C39.3064 408.904 39.4216 408.824 39.5193 408.723C39.617 408.617 39.6931 408.492 39.7478 408.348C39.8064 408.203 39.8357 408.045 39.8357 407.873C39.8357 407.701 39.8064 407.543 39.7478 407.398C39.6931 407.254 39.617 407.131 39.5193 407.029C39.4216 406.924 39.3064 406.844 39.1736 406.789C39.0447 406.73 38.906 406.701 38.7576 406.701C38.6091 406.701 38.4685 406.73 38.3357 406.789C38.2068 406.844 38.0935 406.924 37.9959 407.029C37.8982 407.131 37.8201 407.254 37.7615 407.398C37.7068 407.543 37.6795 407.701 37.6795 407.873Z" fill="#989898"/>
<path d="M184.834 324.773C193.448 324.773 198.176 329.823 198.68 335.169H191.08C191.08 335.169 189.62 331.324 184.636 331.374C180.758 331.374 178.092 333.675 178.092 337.817C178.043 341.917 180.659 344.665 184.743 344.665C189.578 344.714 191.237 340.87 191.237 340.87H198.845C197.987 346.513 193.258 351.315 184.999 351.315C176.541 351.315 171.104 346.216 171.104 337.875C171.104 329.534 176.525 324.773 184.834 324.773Z" fill="#F5F5F5"/>
<path d="M216.816 324.773C225.826 324.773 231.619 330.219 231.619 338.015C231.619 345.861 225.826 351.306 216.816 351.306C207.805 351.306 202.013 346.257 202.013 338.015C202.013 329.773 207.797 324.773 216.816 324.773ZM216.816 344.566C222.154 344.566 224.069 341.62 224.069 338.023C224.069 334.426 222.154 331.53 216.816 331.53C211.428 331.53 209.563 334.426 209.563 338.023C209.563 341.612 211.428 344.566 216.816 344.566Z" fill="#F5F5F5"/>
<path d="M249.195 324.773C258.205 324.773 263.998 330.219 263.998 338.015C263.998 345.861 258.205 351.306 249.195 351.306C240.184 351.306 234.392 346.257 234.392 338.015C234.392 329.773 240.184 324.773 249.195 324.773ZM249.195 344.566C254.533 344.566 256.448 341.62 256.448 338.023C256.448 334.426 254.533 331.53 249.195 331.53C243.806 331.53 241.942 334.426 241.942 338.023C241.942 341.612 243.806 344.566 249.195 344.566Z" fill="#F5F5F5"/>
<path d="M267.422 314.279H274.518V341.315C274.518 343.411 275.475 344.013 277.843 344.013H280.764V350.506H276.787C270.846 350.506 267.422 348.204 267.422 344.459V314.279Z" fill="#F5F5F5"/>
<path d="M300.006 324.773C309.017 324.773 314.809 330.219 314.809 338.015C314.809 345.861 309.017 351.306 300.006 351.306C290.996 351.306 285.203 346.257 285.203 338.015C285.203 329.773 290.996 324.773 300.006 324.773ZM300.006 344.566C305.345 344.566 307.259 341.62 307.259 338.023C307.259 334.426 305.345 331.53 300.006 331.53C294.618 331.53 292.753 334.426 292.753 338.023C292.753 341.612 294.618 344.566 300.006 344.566Z" fill="#F5F5F5"/>
<path d="M175.229 362.666V364.96H174.94V359.424H176.954C177.564 359.424 178.035 359.564 178.39 359.853C178.736 360.133 178.909 360.538 178.909 361.049C178.909 361.561 178.736 361.957 178.381 362.245C178.035 362.534 177.556 362.674 176.954 362.674H175.229V362.666ZM175.229 359.696V362.386H176.946C177.465 362.386 177.87 362.27 178.158 362.039C178.456 361.808 178.596 361.478 178.596 361.041C178.596 360.612 178.447 360.282 178.158 360.051C177.87 359.82 177.457 359.704 176.946 359.704H175.229V359.696Z" fill="#F5F5F5"/>
<path d="M182.862 359.73C183.291 359.499 183.761 359.375 184.289 359.375C184.809 359.375 185.288 359.491 185.717 359.73C186.146 359.961 186.484 360.299 186.732 360.728C186.979 361.157 187.103 361.644 187.103 362.188C187.103 362.733 186.979 363.22 186.732 363.649C186.484 364.078 186.146 364.408 185.717 364.647C185.288 364.878 184.817 365.002 184.289 365.002C183.769 365.002 183.291 364.886 182.862 364.647C182.433 364.416 182.094 364.078 181.847 363.649C181.599 363.22 181.476 362.733 181.476 362.188C181.476 361.644 181.599 361.157 181.847 360.728C182.094 360.291 182.433 359.961 182.862 359.73ZM184.289 359.656C183.827 359.656 183.406 359.763 183.027 359.969C182.647 360.175 182.35 360.472 182.127 360.86C181.905 361.248 181.797 361.693 181.797 362.188C181.797 362.683 181.905 363.129 182.127 363.517C182.35 363.904 182.647 364.201 183.027 364.408C183.406 364.614 183.827 364.721 184.289 364.721C184.636 364.721 184.958 364.663 185.263 364.54C185.568 364.416 185.832 364.251 186.055 364.028C186.278 363.814 186.459 363.541 186.583 363.228C186.715 362.906 186.781 362.568 186.781 362.197C186.781 361.825 186.715 361.479 186.583 361.165C186.451 360.844 186.278 360.58 186.055 360.365C185.832 360.151 185.568 359.977 185.263 359.854C184.958 359.722 184.636 359.656 184.289 359.656Z" fill="#F5F5F5"/>
<path d="M195.66 364.96H195.305L193.498 359.812L191.691 364.96H191.336L189.389 359.424H189.702L191.518 364.63L193.341 359.424H193.663L195.486 364.63L197.302 359.424H197.599L195.66 364.96Z" fill="#F5F5F5"/>
<path d="M204.035 364.96H200.33V359.424H204.018V359.704H200.619V362.039H203.928V362.32H200.619V364.696H204.035V364.96V364.96Z" fill="#F5F5F5"/>
<path d="M209.209 359.416C209.811 359.416 210.273 359.548 210.603 359.812C210.933 360.076 211.098 360.447 211.098 360.926C211.098 361.404 210.933 361.776 210.595 362.04C210.256 362.304 209.794 362.444 209.209 362.444H208.837L211.065 364.952H210.694L208.491 362.444H207.468V364.952H207.179V359.416H209.209V359.416ZM207.468 359.697V362.18H209.217C209.72 362.18 210.116 362.073 210.388 361.858C210.661 361.644 210.801 361.338 210.801 360.934C210.801 360.538 210.661 360.233 210.388 360.018C210.116 359.804 209.728 359.697 209.225 359.697H207.468Z" fill="#F5F5F5"/>
<path d="M217.716 364.96H214.011V359.424H217.699V359.704H214.3V362.039H217.608V362.32H214.3V364.696H217.716V364.96V364.96Z" fill="#F5F5F5"/>
<path d="M222.782 359.416C223.731 359.416 224.482 359.664 225.019 360.159C225.563 360.654 225.835 361.33 225.835 362.188C225.835 363.046 225.563 363.723 225.019 364.218C224.474 364.713 223.731 364.96 222.782 364.96H220.852V359.424H222.782V359.416ZM221.14 359.697V364.671H222.782C223.657 364.671 224.334 364.449 224.812 364.011C225.291 363.566 225.53 362.964 225.53 362.188C225.53 361.413 225.291 360.802 224.812 360.365C224.334 359.919 223.657 359.705 222.782 359.705H221.14V359.697Z" fill="#F5F5F5"/>
<path d="M234.598 359.416C235.192 359.416 235.662 359.532 236.001 359.763C236.339 359.994 236.504 360.349 236.504 360.835C236.504 361.149 236.422 361.413 236.257 361.628C236.092 361.842 235.861 362.007 235.555 362.106C235.894 362.205 236.149 362.378 236.339 362.601C236.521 362.832 236.611 363.113 236.611 363.459C236.611 363.962 236.438 364.334 236.1 364.581C235.761 364.829 235.283 364.944 234.672 364.944H232.461V359.408H234.598V359.416ZM232.758 359.697V361.982H234.59C235.662 361.982 236.199 361.603 236.199 360.835C236.199 360.076 235.662 359.689 234.59 359.689H232.758V359.697ZM232.758 362.263V364.68H234.664C235.761 364.68 236.306 364.276 236.306 363.467C236.306 362.667 235.761 362.263 234.664 362.263H232.758Z" fill="#F5F5F5"/>
<path d="M241.174 362.509V364.96H240.885V362.509L238.641 359.424H238.995L241.025 362.229L243.063 359.424H243.41L241.174 362.509Z" fill="#F5F5F5"/>
<path d="M177.325 368.871C177.787 368.871 178.216 368.97 178.62 369.176C179.016 369.374 179.322 369.655 179.536 370.001L179.289 370.166C179.091 369.853 178.81 369.605 178.464 369.424C178.117 369.242 177.737 369.152 177.325 369.152C176.863 369.152 176.442 369.259 176.062 369.465C175.683 369.671 175.386 369.968 175.163 370.356C174.94 370.744 174.833 371.189 174.833 371.684C174.833 372.179 174.94 372.625 175.163 373.013C175.386 373.4 175.683 373.698 176.062 373.904C176.442 374.11 176.863 374.217 177.325 374.217C177.737 374.217 178.117 374.127 178.464 373.945C178.81 373.764 179.091 373.516 179.289 373.202L179.528 373.376C179.297 373.722 178.992 373.995 178.596 374.193C178.208 374.391 177.779 374.49 177.317 374.49C176.797 374.49 176.318 374.374 175.889 374.135C175.46 373.904 175.122 373.566 174.874 373.136C174.627 372.707 174.503 372.221 174.503 371.676C174.503 371.132 174.627 370.645 174.874 370.216C175.122 369.787 175.46 369.457 175.889 369.218C176.335 368.987 176.805 368.871 177.325 368.871Z" fill="#F5F5F5"/>
<path d="M184.512 368.912C185.114 368.912 185.576 369.044 185.906 369.308C186.236 369.572 186.401 369.943 186.401 370.422C186.401 370.9 186.236 371.272 185.898 371.536C185.56 371.8 185.098 371.94 184.512 371.94H184.14L186.368 374.448H185.997L183.786 371.94H182.762V374.448H182.474V368.912H184.512ZM182.779 369.193V371.676H184.528C185.032 371.676 185.428 371.569 185.7 371.354C185.972 371.14 186.112 370.834 186.112 370.43C186.112 370.034 185.972 369.729 185.7 369.514C185.428 369.3 185.04 369.193 184.536 369.193H182.779Z" fill="#F5F5F5"/>
<path d="M193.019 374.448H189.314V368.912H193.003V369.193H189.603V371.527H192.912V371.808H189.603V374.184H193.019V374.448V374.448Z" fill="#F5F5F5"/>
<path d="M200.603 374.448H200.289L199.555 372.732H196.518L195.784 374.448H195.479L197.871 368.912H198.226L200.603 374.448ZM196.634 372.46H199.431L198.036 369.217L196.634 372.46Z" fill="#F5F5F5"/>
<path d="M207.005 369.193H204.917V374.448H204.629V369.193H202.541V368.912H207.013V369.193H207.005Z" fill="#F5F5F5"/>
<path d="M209.918 374.448H209.629V368.912H209.918V374.448Z" fill="#F5F5F5"/>
<path d="M215.265 374.448H214.91L212.542 368.912H212.856L215.083 374.143L217.32 368.912H217.625L215.265 374.448Z" fill="#F5F5F5"/>
<path d="M220.538 374.448H220.249V368.912H220.538V374.448Z" fill="#F5F5F5"/>
<path d="M227.634 369.193H225.546V374.448H225.258V369.193H223.17V368.912H227.642V369.193H227.634Z" fill="#F5F5F5"/>
<path d="M232.147 371.998V374.448H231.859V371.998L229.614 368.912H229.969L231.999 371.717L234.037 368.912H234.384L232.147 371.998Z" fill="#F5F5F5"/>
<path d="M115.909 379.117C144.335 379.117 154.526 363.417 154.526 344.252C154.534 325.094 144.335 309.658 115.909 309.658C87.2194 309.658 77.293 325.094 77.293 344.252C77.293 363.417 87.2194 379.117 115.909 379.117Z" fill="#F5F5F5"/>
<path d="M148.346 315.656L148.338 311.778L146.778 311.786V311.382L150.326 311.374V311.778L148.775 311.786L148.783 315.664L148.346 315.656ZM155.269 315.639L155.252 311.968L153.66 315.136H153.223L151.605 311.976L151.614 315.648H151.176L151.168 311.366H151.762L153.445 314.625L155.096 311.357H155.69L155.698 315.639H155.269Z" fill="#F5F5F5"/>
<path d="M155.507 269.941L25.7138 269.941" stroke="#9D9D9D" stroke-width="2"/>
<path d="M12.0078 280.867C12.0078 279.883 12.1562 279 12.4531 278.219C12.75 277.438 13.1719 276.776 13.7188 276.234C14.2656 275.688 14.9297 275.271 15.7109 274.984C16.4922 274.698 17.3672 274.555 18.3359 274.555C19.3047 274.555 20.1797 274.698 20.9609 274.984C21.7422 275.271 22.4062 275.688 22.9531 276.234C23.5 276.776 23.9219 277.438 24.2188 278.219C24.5156 279 24.6641 279.883 24.6641 280.867C24.6641 281.852 24.5156 282.734 24.2188 283.516C23.9219 284.297 23.5 284.958 22.9531 285.5C22.4062 286.042 21.7422 286.456 20.9609 286.742C20.1797 287.029 19.3047 287.172 18.3359 287.172C17.3672 287.172 16.4922 287.029 15.7109 286.742C14.9297 286.456 14.2656 286.042 13.7188 285.5C13.1719 284.958 12.75 284.297 12.4531 283.516C12.1562 282.734 12.0078 281.852 12.0078 280.867ZM14.4844 280.859C14.4844 281.526 14.5729 282.115 14.75 282.625C14.9323 283.135 15.1901 283.565 15.5234 283.914C15.8568 284.258 16.2604 284.521 16.7344 284.703C17.2083 284.88 17.7422 284.969 18.3359 284.969C18.9297 284.969 19.4635 284.88 19.9375 284.703C20.4115 284.521 20.8151 284.258 21.1484 283.914C21.4818 283.565 21.737 283.135 21.9141 282.625C22.0964 282.115 22.1875 281.526 22.1875 280.859C22.1875 280.198 22.0964 279.615 21.9141 279.109C21.737 278.599 21.4818 278.169 21.1484 277.82C20.8151 277.471 20.4115 277.208 19.9375 277.031C19.4635 276.849 18.9297 276.758 18.3359 276.758C17.7422 276.758 17.2083 276.849 16.7344 277.031C16.2604 277.208 15.8568 277.471 15.5234 277.82C15.1901 278.169 14.9323 278.599 14.75 279.109C14.5729 279.615 14.4844 280.198 14.4844 280.859ZM13.1641 314.094C13.7786 314.396 14.4349 314.617 15.1328 314.758C15.8359 314.893 16.5208 314.961 17.1875 314.961C17.7812 314.961 18.2943 314.914 18.7266 314.82C19.1589 314.721 19.5156 314.589 19.7969 314.422C20.0781 314.255 20.2865 314.057 20.4219 313.828C20.5573 313.599 20.625 313.352 20.625 313.086C20.625 312.727 20.5026 312.406 20.2578 312.125C20.013 311.839 19.6406 311.625 19.1406 311.484C18.6458 311.339 18.0182 311.281 17.2578 311.312C16.5026 311.344 15.612 311.492 14.5859 311.758L14.5938 309.93L19.1562 306.961H12.6953V304.789H22.4688V306.914L18.4531 309.461C19.1875 309.461 19.8438 309.555 20.4219 309.742C21 309.93 21.487 310.188 21.8828 310.516C22.2786 310.844 22.5807 311.232 22.7891 311.68C22.9974 312.128 23.1016 312.609 23.1016 313.125C23.1016 313.734 22.9661 314.289 22.6953 314.789C22.4297 315.284 22.0417 315.708 21.5312 316.062C21.0208 316.411 20.3958 316.682 19.6562 316.875C18.9219 317.068 18.0885 317.164 17.1562 317.164C16.1667 317.164 15.2526 317.06 14.4141 316.852C13.5755 316.638 12.7786 316.344 12.0234 315.969L13.1641 314.094Z" fill="white"/>
</g>
<defs>
<clipPath id="clip0_208_2501">
<rect width="400" height="540" fill="white"/>
</clipPath>
</defs>
</svg>
