<svg width="400" height="540" viewBox="0 0 400 540" fill="none" xmlns="http://www.w3.org/2000/svg">
<g clip-path="url(#clip0_208_2600)">
<rect width="400" height="540" fill="#141414"/>
<rect width="400" height="540" fill="#F08261"/>
<rect x="-4" width="307" height="270" fill="black"/>
<path d="M265 215.083L265 115.917L244.917 106M265 215.083L244.917 225L164.583 185.333M265 215.083L184.667 175.417M244.917 106L244.917 185.333L204.75 165.5L224.833 155.583L144.5 195.25L64.1667 155.583L84.25 165.5L44.0833 185.333L44.0833 106M244.917 106L144.5 155.583L44.0833 106M224.833 175.417L224.833 135.75L144.5 175.417L64.1667 135.75L64.1667 175.417M24 215.083L24 115.917L44.0833 106M24 215.083L44.0833 225L124.417 185.333M24 215.083L104.333 175.417" stroke="white" stroke-width="2" stroke-linejoin="round"/>
<path d="M45.7 72H38.25C37.6167 72 37.15 71.8667 36.85 71.6C36.5833 71.3 36.45 70.8333 36.45 70.2V37.8C36.45 37.1667 36.5833 36.7167 36.85 36.45C37.15 36.15 37.6167 36 38.25 36H46.3C46.8333 36 47.2667 36.1167 47.6 36.35C47.9667 36.5833 48.3 36.9667 48.6 37.5L53.1 45.65C53.2667 45.95 53.4 46.1667 53.5 46.3C53.6333 46.4333 53.8 46.5 54 46.5H54.45C54.65 46.5 54.8 46.4333 54.9 46.3C55.0333 46.1667 55.1833 45.95 55.35 45.65L59.8 37.5C60.1 36.9667 60.4167 36.5833 60.75 36.35C61.1167 36.1167 61.5667 36 62.1 36H70.2C70.8333 36 71.2833 36.15 71.55 36.45C71.85 36.7167 72 37.1667 72 37.8V70.2C72 70.8333 71.85 71.3 71.55 71.6C71.2833 71.8667 70.8333 72 70.2 72H62.5C61.8667 72 61.4 71.8667 61.1 71.6C60.8333 71.3 60.7 70.8333 60.7 70.2V52.6L57.75 58.05C57.45 58.6167 57.0833 59.0333 56.65 59.3C56.25 59.5333 55.7333 59.65 55.1 59.65H53.1C52.4667 59.65 51.9333 59.5333 51.5 59.3C51.1 59.0333 50.75 58.6167 50.45 58.05L47.5 52.6V70.2C47.5 70.8333 47.35 71.3 47.05 71.6C46.7833 71.8667 46.3333 72 45.7 72ZM103.882 72H80.6816C80.0483 72 79.5816 71.8667 79.2816 71.6C79.015 71.3 78.8816 70.8333 78.8816 70.2V37.8C78.8816 37.1667 79.015 36.7167 79.2816 36.45C79.5816 36.15 80.0483 36 80.6816 36H103.882C104.515 36 104.965 36.15 105.232 36.45C105.532 36.7167 105.682 37.1667 105.682 37.8V43.65C105.682 44.2833 105.532 44.75 105.232 45.05C104.965 45.3167 104.515 45.45 103.882 45.45H90.0816V49.3H99.8316C100.465 49.3 100.915 49.45 101.182 49.75C101.482 50.0167 101.632 50.4667 101.632 51.1V56.45C101.632 57.0833 101.482 57.55 101.182 57.85C100.915 58.1167 100.465 58.25 99.8316 58.25H90.0816V62.55H103.882C104.515 62.55 104.965 62.7 105.232 63C105.532 63.2667 105.682 63.7167 105.682 64.35V70.2C105.682 70.8333 105.532 71.3 105.232 71.6C104.965 71.8667 104.515 72 103.882 72ZM130.246 72H113.396C112.763 72 112.296 71.8667 111.996 71.6C111.73 71.3 111.596 70.8333 111.596 70.2V37.8C111.596 37.1667 111.73 36.7167 111.996 36.45C112.296 36.15 112.763 36 113.396 36H130.246C134.413 36 137.496 36.8333 139.496 38.5C141.53 40.1667 142.546 42.7333 142.546 46.2V61.8C142.546 65.2667 141.53 67.8333 139.496 69.5C137.496 71.1667 134.413 72 130.246 72ZM122.946 45.55V62.55H128.896C129.696 62.55 130.28 62.35 130.646 61.95C131.046 61.55 131.246 60.9333 131.246 60.1V47.95C131.246 47.1167 131.046 46.5167 130.646 46.15C130.28 45.75 129.696 45.55 128.896 45.55H122.946ZM149.901 72C149.268 72 148.801 71.8667 148.501 71.6C148.235 71.3 148.101 70.8333 148.101 70.2V64.25C148.101 63.6167 148.235 63.1667 148.501 62.9C148.801 62.6 149.268 62.45 149.901 62.45H154.851V45.65H149.901C149.268 45.65 148.801 45.5167 148.501 45.25C148.235 44.95 148.101 44.4833 148.101 43.85V37.8C148.101 37.1667 148.235 36.7167 148.501 36.45C148.801 36.15 149.268 36 149.901 36H171.201C171.835 36 172.285 36.15 172.551 36.45C172.851 36.7167 173.001 37.1667 173.001 37.8V43.85C173.001 44.4833 172.851 44.95 172.551 45.25C172.285 45.5167 171.835 45.65 171.201 45.65H166.351V62.45H171.201C171.835 62.45 172.285 62.6 172.551 62.9C172.851 63.1667 173.001 63.6167 173.001 64.25V70.2C173.001 70.8333 172.851 71.3 172.551 71.6C172.285 71.8667 171.835 72 171.201 72H149.901ZM209.825 62.55C209.825 64.0833 209.591 65.4833 209.125 66.75C208.691 67.9833 207.891 69.05 206.725 69.95C205.591 70.8167 204.025 71.5 202.025 72C200.025 72.5 197.475 72.75 194.375 72.75C191.275 72.75 188.725 72.5 186.725 72C184.725 71.5 183.141 70.8167 181.975 69.95C180.841 69.05 180.041 67.9833 179.575 66.75C179.141 65.4833 178.925 64.0833 178.925 62.55V37.8C178.925 37.1667 179.058 36.7167 179.325 36.45C179.625 36.15 180.091 36 180.725 36H188.575C189.208 36 189.658 36.15 189.925 36.45C190.225 36.7167 190.375 37.1667 190.375 37.8V60.6C190.375 61.2667 190.625 61.8333 191.125 62.3C191.625 62.7333 192.741 62.95 194.475 62.95C196.241 62.95 197.375 62.7333 197.875 62.3C198.375 61.8333 198.625 61.2667 198.625 60.6V37.8C198.625 37.1667 198.758 36.7167 199.025 36.45C199.325 36.15 199.791 36 200.425 36H208.025C208.658 36 209.108 36.15 209.375 36.45C209.675 36.7167 209.825 37.1667 209.825 37.8V62.55ZM225.729 72H218.279C217.646 72 217.179 71.8667 216.879 71.6C216.613 71.3 216.479 70.8333 216.479 70.2V37.8C216.479 37.1667 216.613 36.7167 216.879 36.45C217.179 36.15 217.646 36 218.279 36H226.329C226.863 36 227.296 36.1167 227.629 36.35C227.996 36.5833 228.329 36.9667 228.629 37.5L233.129 45.65C233.296 45.95 233.429 46.1667 233.529 46.3C233.663 46.4333 233.829 46.5 234.029 46.5H234.479C234.679 46.5 234.829 46.4333 234.929 46.3C235.063 46.1667 235.213 45.95 235.379 45.65L239.829 37.5C240.129 36.9667 240.446 36.5833 240.779 36.35C241.146 36.1167 241.596 36 242.129 36H250.229C250.863 36 251.313 36.15 251.579 36.45C251.879 36.7167 252.029 37.1667 252.029 37.8V70.2C252.029 70.8333 251.879 71.3 251.579 71.6C251.313 71.8667 250.863 72 250.229 72H242.529C241.896 72 241.429 71.8667 241.129 71.6C240.863 71.3 240.729 70.8333 240.729 70.2V52.6L237.779 58.05C237.479 58.6167 237.113 59.0333 236.679 59.3C236.279 59.5333 235.763 59.65 235.129 59.65H233.129C232.496 59.65 231.963 59.5333 231.529 59.3C231.129 59.0333 230.779 58.6167 230.479 58.05L227.529 52.6V70.2C227.529 70.8333 227.379 71.3 227.079 71.6C226.813 71.8667 226.363 72 225.729 72Z" fill="white"/>
<rect x="93" y="270" width="307" height="270" fill="#E0D6CC"/>
<path d="M121 483.083L201.333 443.417Z" fill="black"/>
<path d="M362 483.083L362 383.917L341.917 374M362 483.083L341.917 493L261.583 453.333M362 483.083L281.667 443.417M341.917 374L341.917 453.333L301.75 433.5L321.833 423.583L241.5 463.25L161.167 423.583L181.25 433.5L141.083 453.333L141.083 374M341.917 374L241.5 423.583L141.083 374M321.833 443.417L321.833 403.75L241.5 443.417L161.167 403.75L161.167 443.417M121 483.083L121 383.917L141.083 374M121 483.083L141.083 493L221.417 453.333M121 483.083L201.333 443.417" stroke="black" stroke-width="2" stroke-linejoin="round"/>
<path d="M142.7 340H135.25C134.617 340 134.15 339.867 133.85 339.6C133.583 339.3 133.45 338.833 133.45 338.2V305.8C133.45 305.167 133.583 304.717 133.85 304.45C134.15 304.15 134.617 304 135.25 304H143.3C143.833 304 144.267 304.117 144.6 304.35C144.967 304.583 145.3 304.967 145.6 305.5L150.1 313.65C150.267 313.95 150.4 314.167 150.5 314.3C150.633 314.433 150.8 314.5 151 314.5H151.45C151.65 314.5 151.8 314.433 151.9 314.3C152.033 314.167 152.183 313.95 152.35 313.65L156.8 305.5C157.1 304.967 157.417 304.583 157.75 304.35C158.117 304.117 158.567 304 159.1 304H167.2C167.833 304 168.283 304.15 168.55 304.45C168.85 304.717 169 305.167 169 305.8V338.2C169 338.833 168.85 339.3 168.55 339.6C168.283 339.867 167.833 340 167.2 340H159.5C158.867 340 158.4 339.867 158.1 339.6C157.833 339.3 157.7 338.833 157.7 338.2V320.6L154.75 326.05C154.45 326.617 154.083 327.033 153.65 327.3C153.25 327.533 152.733 327.65 152.1 327.65H150.1C149.467 327.65 148.933 327.533 148.5 327.3C148.1 327.033 147.75 326.617 147.45 326.05L144.5 320.6V338.2C144.5 338.833 144.35 339.3 144.05 339.6C143.783 339.867 143.333 340 142.7 340ZM200.882 340H177.682C177.048 340 176.582 339.867 176.282 339.6C176.015 339.3 175.882 338.833 175.882 338.2V305.8C175.882 305.167 176.015 304.717 176.282 304.45C176.582 304.15 177.048 304 177.682 304H200.882C201.515 304 201.965 304.15 202.232 304.45C202.532 304.717 202.682 305.167 202.682 305.8V311.65C202.682 312.283 202.532 312.75 202.232 313.05C201.965 313.317 201.515 313.45 200.882 313.45H187.082V317.3H196.832C197.465 317.3 197.915 317.45 198.182 317.75C198.482 318.017 198.632 318.467 198.632 319.1V324.45C198.632 325.083 198.482 325.55 198.182 325.85C197.915 326.117 197.465 326.25 196.832 326.25H187.082V330.55H200.882C201.515 330.55 201.965 330.7 202.232 331C202.532 331.267 202.682 331.717 202.682 332.35V338.2C202.682 338.833 202.532 339.3 202.232 339.6C201.965 339.867 201.515 340 200.882 340ZM227.246 340H210.396C209.763 340 209.296 339.867 208.996 339.6C208.73 339.3 208.596 338.833 208.596 338.2V305.8C208.596 305.167 208.73 304.717 208.996 304.45C209.296 304.15 209.763 304 210.396 304H227.246C231.413 304 234.496 304.833 236.496 306.5C238.53 308.167 239.546 310.733 239.546 314.2V329.8C239.546 333.267 238.53 335.833 236.496 337.5C234.496 339.167 231.413 340 227.246 340ZM219.946 313.55V330.55H225.896C226.696 330.55 227.28 330.35 227.646 329.95C228.046 329.55 228.246 328.933 228.246 328.1V315.95C228.246 315.117 228.046 314.517 227.646 314.15C227.28 313.75 226.696 313.55 225.896 313.55H219.946ZM246.901 340C246.268 340 245.801 339.867 245.501 339.6C245.235 339.3 245.101 338.833 245.101 338.2V332.25C245.101 331.617 245.235 331.167 245.501 330.9C245.801 330.6 246.268 330.45 246.901 330.45H251.851V313.65H246.901C246.268 313.65 245.801 313.517 245.501 313.25C245.235 312.95 245.101 312.483 245.101 311.85V305.8C245.101 305.167 245.235 304.717 245.501 304.45C245.801 304.15 246.268 304 246.901 304H268.201C268.835 304 269.285 304.15 269.551 304.45C269.851 304.717 270.001 305.167 270.001 305.8V311.85C270.001 312.483 269.851 312.95 269.551 313.25C269.285 313.517 268.835 313.65 268.201 313.65H263.351V330.45H268.201C268.835 330.45 269.285 330.6 269.551 330.9C269.851 331.167 270.001 331.617 270.001 332.25V338.2C270.001 338.833 269.851 339.3 269.551 339.6C269.285 339.867 268.835 340 268.201 340H246.901ZM306.825 330.55C306.825 332.083 306.591 333.483 306.125 334.75C305.691 335.983 304.891 337.05 303.725 337.95C302.591 338.817 301.025 339.5 299.025 340C297.025 340.5 294.475 340.75 291.375 340.75C288.275 340.75 285.725 340.5 283.725 340C281.725 339.5 280.141 338.817 278.975 337.95C277.841 337.05 277.041 335.983 276.575 334.75C276.141 333.483 275.925 332.083 275.925 330.55V305.8C275.925 305.167 276.058 304.717 276.325 304.45C276.625 304.15 277.091 304 277.725 304H285.575C286.208 304 286.658 304.15 286.925 304.45C287.225 304.717 287.375 305.167 287.375 305.8V328.6C287.375 329.267 287.625 329.833 288.125 330.3C288.625 330.733 289.741 330.95 291.475 330.95C293.241 330.95 294.375 330.733 294.875 330.3C295.375 329.833 295.625 329.267 295.625 328.6V305.8C295.625 305.167 295.758 304.717 296.025 304.45C296.325 304.15 296.791 304 297.425 304H305.025C305.658 304 306.108 304.15 306.375 304.45C306.675 304.717 306.825 305.167 306.825 305.8V330.55ZM322.729 340H315.279C314.646 340 314.179 339.867 313.879 339.6C313.613 339.3 313.479 338.833 313.479 338.2V305.8C313.479 305.167 313.613 304.717 313.879 304.45C314.179 304.15 314.646 304 315.279 304H323.329C323.863 304 324.296 304.117 324.629 304.35C324.996 304.583 325.329 304.967 325.629 305.5L330.129 313.65C330.296 313.95 330.429 314.167 330.529 314.3C330.663 314.433 330.829 314.5 331.029 314.5H331.479C331.679 314.5 331.829 314.433 331.929 314.3C332.063 314.167 332.213 313.95 332.379 313.65L336.829 305.5C337.129 304.967 337.446 304.583 337.779 304.35C338.146 304.117 338.596 304 339.129 304H347.229C347.863 304 348.313 304.15 348.579 304.45C348.879 304.717 349.029 305.167 349.029 305.8V338.2C349.029 338.833 348.879 339.3 348.579 339.6C348.313 339.867 347.863 340 347.229 340H339.529C338.896 340 338.429 339.867 338.129 339.6C337.863 339.3 337.729 338.833 337.729 338.2V320.6L334.779 326.05C334.479 326.617 334.113 327.033 333.679 327.3C333.279 327.533 332.763 327.65 332.129 327.65H330.129C329.496 327.65 328.963 327.533 328.529 327.3C328.129 327.033 327.779 326.617 327.479 326.05L324.529 320.6V338.2C324.529 338.833 324.379 339.3 324.079 339.6C323.813 339.867 323.363 340 322.729 340Z" fill="black"/>
<path d="M99.0677 230.053L104.455 221.934L107.694 231.124L107.946 231.838L108.504 231.326L115.678 224.731L116.624 234.429L116.697 235.183L117.362 234.819L125.905 230.133L124.503 239.775L124.394 240.525L125.126 240.331L134.542 237.825L130.873 246.852L130.588 247.554L131.346 247.54L141.088 247.361L135.365 255.248L134.92 255.861L135.659 256.029L145.161 258.186L137.717 264.474L137.138 264.963L137.816 265.303L146.525 269.672L137.793 273.995L137.114 274.332L137.69 274.824L145.101 281.15L135.588 283.258L134.848 283.422L135.29 284.038L140.972 291.954L131.231 291.724L130.473 291.706L130.755 292.41L134.377 301.456L124.973 298.901L124.242 298.703L124.347 299.453L125.699 309.103L117.181 304.373L116.518 304.005L116.44 304.759L115.444 314.451L108.305 307.82L107.75 307.304L107.494 308.018L104.207 317.19L98.862 309.043L98.4463 308.409L98.0273 309.041L92.6404 317.16L89.4009 307.97L89.1489 307.256L88.591 307.769L81.4175 314.363L80.4714 304.665L80.3978 303.911L79.7333 304.275L71.1901 308.961L72.5924 299.319L72.7014 298.569L71.969 298.763L62.5527 301.269L66.2218 292.242L66.5071 291.54L65.7494 291.554L56.0071 291.733L61.7298 283.846L62.1749 283.233L61.4359 283.065L51.9339 280.908L59.3776 274.62L59.9566 274.131L59.2791 273.791L50.5696 269.422L59.3018 265.099L59.981 264.762L59.4045 264.27L51.9937 257.944L61.5068 255.836L62.2467 255.672L61.8048 255.056L56.1233 247.14L65.8645 247.37L66.6221 247.388L66.3404 246.684L62.7184 237.638L72.1215 240.193L72.8529 240.391L72.7478 239.641L71.3958 229.991L79.9144 234.721L80.577 235.089L80.6545 234.335L81.6512 224.643L88.7902 231.274L89.3455 231.79L89.6012 231.077L92.8885 221.904L98.233 230.051L98.6487 230.685L99.0677 230.053Z" fill="#F08261" stroke="black"/>
<path d="M78.5955 267.8L80.3813 266.532L85.2696 273.418L81.9915 275.745L76.3485 270.517L76.3241 270.534L80.6827 276.674L78.9091 277.933L74.0208 271.047L77.0543 268.894L82.9297 273.957L82.9541 273.94L78.5955 267.8ZM87.2644 269.96L90.9339 267.356L91.8977 268.713L86.5525 272.508L81.6642 265.621L86.8749 261.922L87.9081 263.378L84.3732 265.887L85.2675 267.147L87.8973 265.28L88.8697 266.65L86.2399 268.517L87.2644 269.96ZM96.2568 265.877C95.2293 266.606 94.2595 266.89 93.3475 266.728C92.4378 266.552 91.6327 265.971 90.9323 264.984L88.1279 261.033L89.9626 259.731L92.7584 263.669C93.0015 264.012 93.2403 264.253 93.4747 264.393C93.7033 264.525 93.9176 264.594 94.1175 264.599C94.3256 264.599 94.5146 264.563 94.6845 264.491C94.8487 264.411 94.9878 264.331 95.102 264.25C95.2895 264.117 95.4609 263.952 95.6161 263.756C95.7794 263.554 95.8552 263.298 95.8433 262.988C95.8314 262.677 95.6634 262.294 95.3393 261.837L92.5435 257.899L94.3782 256.596L97.1827 260.547C97.8947 261.55 98.1807 262.506 98.0409 263.415C97.9034 264.309 97.3087 265.13 96.2568 265.877ZM101.18 260.082L104.85 257.478L105.814 258.835L100.468 262.63L95.5801 255.743L100.791 252.044L101.824 253.5L98.2891 256.009L99.1834 257.269L101.813 255.402L102.786 256.772L100.156 258.639L101.18 260.082ZM109.795 256.193C109.404 256.471 108.989 256.698 108.55 256.874C108.111 257.051 107.672 257.148 107.231 257.167C106.785 257.177 106.355 257.09 105.941 256.905C105.536 256.714 105.175 256.395 104.856 255.946L106.569 254.731C106.603 254.78 106.675 254.846 106.783 254.928C106.893 254.997 107.041 255.051 107.228 255.09C107.424 255.123 107.652 255.108 107.914 255.045C108.178 254.968 108.485 254.805 108.836 254.556C108.991 254.446 109.141 254.321 109.287 254.181C109.433 254.041 109.537 253.893 109.599 253.739C109.655 253.576 109.625 253.413 109.509 253.25C109.388 253.079 109.211 253.002 108.978 253.02C108.754 253.032 108.491 253.103 108.189 253.231C107.89 253.345 107.563 253.479 107.207 253.634C106.859 253.783 106.499 253.916 106.128 254.032C105.757 254.148 105.387 254.215 105.018 254.231C104.652 254.233 104.307 254.153 103.983 253.991C103.662 253.814 103.371 253.518 103.112 253.101C102.725 252.468 102.677 251.797 102.97 251.086C103.257 250.367 103.873 249.672 104.819 249.001C105.325 248.642 105.861 248.396 106.429 248.263C107.005 248.124 107.562 248.14 108.099 248.31C108.645 248.474 109.118 248.838 109.517 249.4L107.866 250.572C107.687 250.32 107.468 250.193 107.21 250.192C106.954 250.177 106.693 250.233 106.428 250.361C106.171 250.482 105.948 250.609 105.761 250.742C105.459 250.956 105.232 251.173 105.081 251.391C104.937 251.603 104.94 251.815 105.091 252.027C105.224 252.215 105.41 252.304 105.648 252.294C105.881 252.276 106.151 252.207 106.458 252.087C106.759 251.959 107.088 251.817 107.444 251.663C107.803 251.494 108.169 251.345 108.542 251.214C108.916 251.084 109.283 251.014 109.643 251.003C110.006 250.979 110.349 251.048 110.673 251.21C111.005 251.367 111.3 251.661 111.556 252.092C111.938 252.716 111.966 253.395 111.641 254.128C111.324 254.856 110.709 255.544 109.795 256.193Z" fill="black"/>
<path d="M74.8832 295.091L69.9949 288.205L72.9672 286.095C73.1303 285.979 73.3359 285.845 73.5839 285.694C73.8262 285.534 74.094 285.393 74.3873 285.271C74.6748 285.14 74.975 285.062 75.2878 285.036C75.6005 285.01 75.9073 285.062 76.208 285.192C76.5087 285.322 76.7864 285.567 77.0411 285.925C77.2263 286.186 77.344 286.465 77.3943 286.76C77.4446 287.055 77.3832 287.375 77.2101 287.718C77.0395 288.048 76.7047 288.414 76.206 288.818L76.2407 288.866C76.8476 288.46 77.3662 288.215 77.7966 288.13C78.2269 288.045 78.5913 288.075 78.8896 288.219C79.1822 288.354 79.4355 288.573 79.6497 288.875C79.916 289.25 80.0625 289.612 80.0894 289.961C80.1105 290.301 80.045 290.624 79.893 290.928C79.7491 291.226 79.5548 291.505 79.3099 291.765C79.0731 292.019 78.8219 292.252 78.5563 292.465C78.2929 292.665 78.0594 292.836 77.8555 292.981L74.8832 295.091ZM73.5895 289.718L74.6659 288.954C74.8698 288.81 75.0678 288.657 75.2601 288.496C75.4466 288.326 75.5773 288.148 75.6523 287.96C75.7215 287.763 75.675 287.551 75.5129 287.323C75.3566 287.103 75.1814 286.994 74.9873 286.997C74.8013 286.994 74.6006 287.057 74.3851 287.185C74.1697 287.314 73.9478 287.459 73.7195 287.621L72.6431 288.385L73.5895 289.718ZM75.6074 292.535L76.7327 291.736C76.9937 291.551 77.2325 291.369 77.4493 291.191C77.6684 290.999 77.8137 290.797 77.8852 290.587C77.951 290.369 77.8912 290.129 77.706 289.868C77.5208 289.607 77.3171 289.476 77.0951 289.474C76.8812 289.466 76.6503 289.538 76.4022 289.69C76.1565 289.828 75.8991 289.992 75.63 290.183L74.5047 290.982L75.6074 292.535ZM82.0263 290.021L77.138 283.134L79.9391 281.146C80.8361 280.509 81.6584 280.165 82.406 280.112C83.1536 280.06 83.7937 280.409 84.3262 281.159C84.7662 281.779 84.9691 282.358 84.9349 282.897C84.9089 283.431 84.6635 283.863 84.1987 284.192C84.4271 284.03 84.6359 283.962 84.8253 283.987C85.0171 283.998 85.1953 284.068 85.36 284.196C85.5271 284.31 85.6848 284.437 85.8332 284.577C85.9816 284.717 86.1306 284.832 86.2803 284.922C86.4242 285.004 86.5718 285.022 86.7231 284.976C86.8767 284.916 87.037 284.753 87.204 284.487L87.8639 285.417C87.7745 285.775 87.6114 286.081 87.3747 286.334C87.1438 286.596 86.8672 286.768 86.5449 286.85C86.2366 286.934 85.9083 286.903 85.56 286.758C85.2059 286.605 84.8668 286.3 84.5426 285.843C84.4037 285.647 84.2629 285.484 84.1203 285.352C83.9801 285.206 83.8112 285.124 83.6136 285.104C83.4161 285.085 83.1752 285.152 82.8911 285.305C82.6013 285.449 82.2384 285.707 81.8025 286.077L83.7387 288.805L82.0263 290.021ZM80.9516 284.879L81.8079 284.271C82.183 284.005 82.4859 283.783 82.7165 283.607C82.9472 283.431 83.0849 283.254 83.1296 283.075C83.1767 282.882 83.1047 282.651 82.9137 282.382C82.6995 282.08 82.4786 281.925 82.2507 281.915C82.0253 281.891 81.7681 281.969 81.4793 282.15C81.1986 282.324 80.8585 282.553 80.459 282.837L79.8229 283.289L80.9516 284.879ZM88.8258 285.194L85.919 276.901L88.7201 274.913L95.6633 280.34L93.8407 281.634L92.1639 280.231L89.8766 281.854L90.6605 283.892L88.8258 285.194ZM87.8537 276.595L89.2865 280.323L90.9133 279.169L87.8537 276.595ZM96.1914 269.609L97.9772 268.342L102.866 275.228L99.5874 277.555L93.9445 272.326L93.92 272.344L98.2786 278.484L96.5051 279.743L91.6168 272.857L94.6502 270.703L100.526 275.767L100.55 275.75L96.1914 269.609ZM108.244 266.223C108.886 267.128 109.204 267.964 109.196 268.73C109.19 269.482 108.922 270.193 108.392 270.863C107.863 271.534 107.145 272.19 106.24 272.833L104.271 274.231L99.3824 267.344L101.352 265.946C102.257 265.304 103.136 264.876 103.99 264.662C104.838 264.44 105.621 264.455 106.339 264.705C107.065 264.951 107.7 265.456 108.244 266.223ZM104.969 271.638L105.776 271.065C106.217 270.752 106.554 270.433 106.789 270.107C107.026 269.767 107.121 269.393 107.076 268.983C107.033 268.56 106.812 268.067 106.413 267.504C105.95 266.852 105.415 266.496 104.808 266.436C104.21 266.37 103.58 266.572 102.92 267.041L102.112 267.614L104.969 271.638ZM114.393 264.856L115.426 266.312L111.952 268.778L110.919 267.322L111.812 266.689L108.99 262.713L108.097 263.347L107.064 261.891L110.538 259.426L111.571 260.881L110.69 261.506L113.512 265.482L114.393 264.856ZM116.617 255.11L118.403 253.842L123.291 260.729L120.013 263.056L114.37 257.827L114.346 257.845L118.705 263.985L116.931 265.244L112.043 258.357L115.076 256.204L120.952 261.268L120.976 261.25L116.617 255.11ZM127.597 257.857C126.92 258.337 126.232 258.629 125.533 258.733C124.828 258.829 124.152 258.714 123.504 258.389C122.865 258.058 122.278 257.499 121.745 256.713C121.213 255.913 120.912 255.134 120.84 254.375C120.776 253.612 120.917 252.904 121.264 252.253C121.606 251.594 122.115 251.024 122.792 250.543C123.803 249.826 124.706 249.491 125.501 249.54C126.304 249.583 127.073 249.932 127.808 250.588L126.339 252.017C126.071 251.778 125.792 251.651 125.5 251.638C125.211 251.61 124.927 251.652 124.65 251.762C124.382 251.867 124.141 251.995 123.929 252.146C123.244 252.632 122.878 253.161 122.831 253.734C122.778 254.299 122.947 254.848 123.337 255.38C123.806 256.041 124.343 256.408 124.947 256.482C125.559 256.55 126.212 256.338 126.905 255.846C127.109 255.701 127.307 255.53 127.498 255.333C127.683 255.128 127.829 254.902 127.936 254.654C128.042 254.407 128.066 254.139 128.008 253.849L126.895 254.639L126.027 253.416L128.681 251.532L131.216 255.104L130.079 255.911L129.086 255.291L129.062 255.308C129.104 255.695 129.007 256.12 128.771 256.582C128.543 257.038 128.151 257.463 127.597 257.857Z" fill="black"/>
</g>
<defs>
<clipPath id="clip0_208_2600">
<rect width="400" height="540" fill="white"/>
</clipPath>
</defs>
</svg>
