<svg width="92" height="92" viewBox="0 0 92 92" fill="none" xmlns="http://www.w3.org/2000/svg">
<path d="M41.3772 44.4038C41.3772 44.4038 45.7104 44.0746 45.7104 38.8897C45.7104 33.709 42.7715 31.1552 38.2794 31.1552L22.8906 31.1309V59.7611H38.6373C38.6373 59.7611 46.5106 60.0102 46.5106 51.172C46.5106 51.172 47.0889 44.4038 41.3772 44.4038ZM28.6167 35.4254H36.49C36.49 35.4254 39.1841 35.4698 39.1841 38.9627C39.1841 42.583 36.49 42.583 36.49 42.583H28.6167V35.4254ZM37.2057 55.4666H28.6167V46.8775H37.2057C37.2057 46.8775 41.5003 46.9219 41.5003 51.172C41.5003 55.4222 37.8242 55.4666 37.2057 55.4666Z" fill="#111111"/>
<path d="M58.6788 38.2891C47.9238 38.2891 47.9424 49.0254 47.9424 49.0254C47.9424 49.0254 47.2267 59.7617 58.6788 59.7617C58.6788 59.7617 68.6993 59.7617 68.6993 51.1727H62.9733C62.9733 51.1727 62.9733 55.4672 58.6788 55.4672C58.6788 55.4672 54.3842 55.4672 54.3842 49.7412C54.3842 49.7412 65.8363 49.7412 68.6993 49.7412C68.6993 46.8781 68.6993 38.2891 58.6788 38.2891ZM54.3842 46.8781C54.3842 46.8781 54.2898 42.5836 58.6788 42.5836C63.0663 42.5836 62.9733 46.8781 62.9733 46.8781H54.3842Z" fill="#111111"/>
<path d="M64.4052 33.9941H52.9531V36.8572H64.4052V33.9941Z" fill="#111111"/>
</svg>
