<svg width="92" height="92" viewBox="0 0 92 92" fill="none" xmlns="http://www.w3.org/2000/svg">
<path d="M32.2159 41.2366C32.9634 43.7154 33.8684 46.0404 34.8521 48.2831C36.5439 52.3 37.685 54.4247 39.2624 57.0609C41.1903 60.2085 43.3186 63.7926 46.8204 66.114C49.3779 67.8059 52.4898 68.6715 55.4801 68.6715C59.6937 68.6715 63.3136 66.8223 65.6385 64.6547C67.9206 62.53 70.8751 58.4344 70.8751 50.4436C70.8751 47.6894 72.0949 45.325 72.9998 43.4364C72.9998 43.3971 73.0392 43.3184 73.1179 43.161C73.472 42.3741 73.9048 41.3511 73.9048 40.3281C73.9048 39.5805 73.7081 38.7149 73.1966 37.9673C72.4096 36.6295 70.9932 36.1574 69.6912 36.1574C66.6615 36.1574 64.5726 38.2821 63.5103 40.4497L63.1562 41.1579C62.7234 40.5284 62.2906 39.8595 61.9364 39.2693C60.8347 37.3414 60.2052 36.0429 59.6544 34.3868C59.2216 33.0884 58.8674 31.5933 58.6314 30.3699C57.9625 26.5105 56.8608 25.2514 55.0473 24.7792C53.7095 24.4251 52.1357 24.7005 50.9911 25.4481C50.2077 23.6775 48.87 22.8906 47.0958 22.8906C44.5777 22.8906 42.292 24.5432 42.292 27.3403C42.292 27.6944 42.3314 28.0485 42.3707 28.4813C42.056 28.4026 41.7018 28.3633 41.3477 28.3633C38.6329 28.3633 36.6226 30.2519 36.6226 32.813C36.6226 33.4032 36.7013 34.0721 36.8981 34.859C36.662 34.8196 36.4259 34.8196 36.1898 34.8196C34.8521 34.8983 33.6323 35.4098 32.7631 36.4722C31.9011 37.4952 31.547 39.069 32.2159 41.2366Z" fill="#1F1F1A"/>
<path d="M34.4578 40.5288C34.1037 39.3878 34.143 38.5222 34.5758 37.9713C35.0086 37.4598 35.5988 37.2237 36.307 37.1844C37.5268 37.1451 37.9989 38.0107 38.7071 40.2534C39.14 41.6699 40.0056 43.7194 40.5171 44.8605C41.1859 46.2376 42.1303 48.0868 42.5631 48.7199C42.9172 49.2708 43.2319 49.4282 43.5861 49.4282C44.2156 49.4282 44.6877 49.0741 44.6877 48.4445C44.6877 48.0904 44.3336 47.5002 44.1369 47.1461C43.7828 46.4772 43.0352 45.1395 42.5237 43.9984C41.9729 42.7393 41.3433 41.1655 40.8318 39.7455C40.5171 38.9192 40.163 37.7388 39.8088 36.5584C39.258 34.7485 38.9826 33.6468 38.9826 32.817C38.9826 31.5579 39.9269 30.7317 41.3433 30.7317C42.3663 30.7317 43.0352 31.2432 43.468 33.0924C43.8221 34.7843 44.4517 37.5421 45.3566 39.7061C45.9468 41.1226 46.8124 43.0148 47.3239 43.9591C47.6387 44.5099 47.9928 44.9821 47.9928 45.1788C47.9928 45.4542 47.4813 45.887 47.0485 46.4772C46.7731 46.8313 46.655 47.0674 46.655 47.3428C46.655 47.5789 46.8124 47.815 47.0485 48.1298C47.2846 48.4445 47.5207 48.7593 47.7961 48.7593C47.9928 48.7593 48.1109 48.6806 48.2289 48.5232C49.4486 46.9887 50.7864 45.9264 52.3245 45.0572C54.1344 44.0342 55.9872 43.5227 57.443 43.2079C58.1512 43.0505 58.348 42.8932 58.348 42.4997C58.348 42.0275 57.9939 41.7521 57.5217 41.7128C57.1676 41.6734 56.8528 41.7128 56.302 41.7521C55.9085 41.7915 55.7118 41.5947 55.4757 41.0832C54.7675 39.5881 53.3904 37.0664 52.5641 33.84C52.21 32.4629 51.8952 31.0071 51.6985 29.1149C51.5805 28.2493 51.7378 27.9345 52.1706 27.541C52.7215 27.0689 53.7051 26.8722 54.4527 27.0689C55.3577 27.305 55.8298 28.0132 56.302 30.771C56.5381 32.0694 56.9315 33.722 57.4037 35.142C57.9939 36.9519 58.7414 38.4506 59.8825 40.4573C60.512 41.559 61.2989 42.7 62.1252 43.8053C61.9678 44.2774 61.6924 44.5922 60.7874 45.3398C59.8825 46.0873 58.9775 46.8743 58.1512 48.3301C57.5611 49.3924 57.2856 50.5728 57.2856 51.3597C57.2856 52.1073 57.443 52.2647 57.9152 52.2647C58.7414 52.2647 59.4103 52.1073 59.4497 51.7532C59.6464 50.3367 59.8825 49.4317 60.6694 48.3658C61.1415 47.7756 61.9678 47.0281 62.6367 46.4379C63.8958 45.4149 64.3286 44.8247 64.7614 43.3689C64.9581 42.7 65.1942 42.0705 65.509 41.4803C66.2565 40.1032 67.5943 38.5293 69.6832 38.5293C70.3521 38.5293 70.9029 38.7261 71.257 39.2769C71.4538 39.5917 71.5325 40.0245 71.5325 40.3392C71.5325 41.0475 71.021 42.0311 70.7849 42.5033C69.9193 44.3525 68.5028 47.189 68.5028 50.4547C68.5028 57.58 65.9847 61.1247 64.0138 62.9346C62.0858 64.7445 59.0526 66.3219 55.4721 66.3219C52.9146 66.3219 50.2749 65.5744 48.1109 64.1579C45.0812 62.1513 43.189 59 41.2611 55.8523C39.7266 53.2948 38.6642 51.2846 37.0081 47.3893C36.0745 45.1323 35.2054 42.9289 34.4578 40.5288Z" fill="#FFE450"/>
<path d="M44.5781 27.3412C44.5781 25.846 45.9552 25.2559 47.0963 25.2559C48.316 25.2559 48.7488 25.846 49.0636 27.1051C49.339 28.1281 49.457 29.0724 49.5751 30.1741C49.7325 31.2758 50.2833 33.7975 50.4407 34.4271C51.0309 36.5911 52.2113 39.1522 53.6277 42.2212C52.8014 42.4966 51.6998 42.9687 50.9522 43.3622C50.0079 43.8737 49.8111 43.8737 49.4177 43.1261C48.5914 41.5916 48.0012 40.4506 47.4897 39.1092C47.0569 38.0076 46.6241 36.7485 46.27 35.2891C45.6798 32.8103 45.6011 32.1021 45.129 30.9575C44.8535 29.7807 44.5781 28.3248 44.5781 27.3412Z" fill="#FFE450"/>
<path d="M30.4892 53.6951C29.6558 54.2102 25.2383 56.5245 24.2403 56.8929C23.5285 57.1576 22.7559 57.0932 22.3016 55.7483C21.7436 54.085 22.527 53.6916 23.643 53.2588C24.6302 52.876 28.7258 51.3952 29.6772 51.1377C30.3461 50.9588 30.8111 51.1842 31.133 51.989C31.4871 52.8725 31.2439 53.2266 30.4892 53.6951Z" fill="#1F1F1A"/>
<path d="M26.8462 44.3194C25.6586 44.3516 20.7261 44.1406 19.5993 44.0297C18.6193 43.9331 18.2222 43.5003 18.3295 42.0803C18.444 40.5565 19.0378 40.4635 19.9999 40.5565C21.1159 40.6638 26.2846 41.5044 27.1073 41.7584C27.9586 42.023 28.0766 42.4094 27.9729 43.1534C27.8405 44.1191 27.4042 44.3015 26.8462 44.3194Z" fill="#1F1F1A"/>
<path d="M27.4602 34.3331C26.101 33.9039 22.0663 31.4608 21.0147 30.8313C20.0632 30.259 19.9416 29.7439 20.6033 28.4884C21.1899 27.3796 21.8409 27.1864 22.8067 27.6872C23.9263 28.2702 27.8787 31.3464 28.6335 31.9545C29.3632 32.5411 29.263 32.8451 28.8803 33.5998C28.4976 34.3546 28.1399 34.5477 27.4602 34.3331Z" fill="#1F1F1A"/>
</svg>
