<svg width="96" height="92" viewBox="0 0 96 92" fill="none" xmlns="http://www.w3.org/2000/svg">
<path d="M50.0274 22.6621C62.9331 22.6621 73.375 33.104 73.375 45.9902C73.375 58.8764 62.9331 69.3379 50.0274 69.3379C37.1216 69.3379 26.6797 58.896 26.6797 46.0098C26.6797 33.1236 37.1216 22.6621 50.0274 22.6621Z" fill="#E74D89"/>
<path d="M50.0293 71C36.2241 71 25 59.7955 25 46.0098C25 32.2045 36.2241 21 50.0293 21C63.8346 21 75.0587 32.2045 75.0587 45.9902C75.0587 59.7759 63.8346 71 50.0293 71ZM71.1283 49.4122C70.4048 49.1776 64.519 47.4372 57.8119 48.4932C60.6081 56.1584 61.7423 62.4157 61.9574 63.7063C66.7677 60.4799 70.1897 55.3567 71.1283 49.4122ZM58.379 65.6813C58.0661 63.8041 56.8146 57.273 53.8228 49.4904C53.7837 49.51 53.7251 49.5295 53.686 49.5295C41.621 53.7337 37.2996 62.0833 36.9085 62.8655C40.526 65.6813 45.0821 67.3629 50.0293 67.3629C52.982 67.3825 55.8174 66.7763 58.379 65.6813ZM34.1513 60.3039C34.6402 59.4826 40.5065 49.7837 51.535 46.2053C51.8088 46.1075 52.1021 46.0293 52.3758 45.9511C51.8479 44.7388 51.2612 43.5264 50.6355 42.3336C39.9589 45.5209 29.5952 45.384 28.6566 45.3645C28.6566 45.5796 28.6371 45.7947 28.6371 46.0098C28.6566 51.5045 30.7294 56.5104 34.1513 60.3039ZM29.1064 41.6492C30.0645 41.6688 38.8639 41.7079 48.8756 39.0485C45.3363 32.7521 41.5037 27.4724 40.9562 26.7098C34.9531 29.5256 30.4947 35.0399 29.1064 41.6492ZM45.0235 25.2628C45.6101 26.045 49.5014 31.3246 53.0016 37.7579C60.6081 34.903 63.815 30.6011 64.2061 30.0536C60.4321 26.7098 55.4654 24.6762 50.0293 24.6762C48.3086 24.6762 46.6269 24.8913 45.0235 25.2628ZM66.5722 32.5174C66.1224 33.1236 62.544 37.7188 54.6441 40.9452C55.133 41.9621 55.6218 42.9984 56.0716 44.0348C56.228 44.4063 56.3844 44.7779 56.5409 45.1298C63.6586 44.2303 70.7176 45.6774 71.4216 45.8142C71.3629 40.7888 69.5639 36.1545 66.5722 32.5174Z" fill="#B2215A"/>
</svg>
