<svg width="92" height="92" viewBox="0 0 92 92" fill="none" xmlns="http://www.w3.org/2000/svg">
<path d="M25.6191 43.6983V47.3141C25.6191 49.1396 24.1351 50.6236 22.3096 50.6236C20.484 50.6236 19 49.1396 19 47.3023V43.6865C19 41.861 20.484 40.377 22.3096 40.377C24.1351 40.377 25.6191 41.861 25.6191 43.6983Z" fill="#0066D9"/>
<path d="M65.3789 43.7934C65.3789 43.7581 65.3789 43.7345 65.3789 43.6992C65.3789 41.8736 66.8629 40.3896 68.6885 40.3896C70.514 40.3896 71.998 41.8736 71.998 43.6992C71.998 43.7345 71.998 43.7581 71.998 43.7934V47.4092C71.9509 49.1994 70.4905 50.6245 68.6885 50.6245C66.8865 50.6245 65.426 49.1876 65.3789 47.4092V43.7934Z" fill="#4285F4"/>
<path d="M37.0644 54.5335V58.1492C37.0644 59.9748 35.5804 61.4588 33.7549 61.4588C31.9293 61.4588 30.4453 59.9748 30.4453 58.1492V54.5335C30.4453 52.7079 31.9293 51.2239 33.7549 51.2239C35.5804 51.2239 37.0644 52.7079 37.0644 54.5335ZM37.0644 32.8506V44.6755C37.0291 46.4657 35.5569 47.9144 33.7549 47.9144C31.9529 47.9144 30.4806 46.4775 30.4453 44.6755V32.8506C30.4453 31.025 31.9293 29.541 33.7549 29.541C35.5804 29.541 37.0644 31.025 37.0644 32.8506Z" fill="#EA4335"/>
<path d="M53.9336 36.4663C53.9336 38.2919 55.4176 39.7759 57.2431 39.7759C59.0687 39.7759 60.5527 38.2919 60.5527 36.4663V32.8506C60.5527 31.025 59.0687 29.541 57.2431 29.541C55.4176 29.541 53.9336 31.025 53.9336 32.8506V36.4663Z" fill="#34A853"/>
<path d="M42.1914 25.9253C42.1914 27.7509 43.6754 29.2349 45.501 29.2349C47.3265 29.2349 48.8105 27.7509 48.8105 25.9253V22.3096C48.8105 20.484 47.3265 19 45.501 19C43.6754 19 42.1914 20.484 42.1914 22.3096V25.9253ZM42.1914 65.0747C42.1914 63.2491 43.6754 61.7651 45.501 61.7651C47.3265 61.7651 48.8105 63.2491 48.8105 65.0747V68.6904C48.8105 70.516 47.3265 72 45.501 72C43.6754 72 42.1914 70.516 42.1914 68.6904V65.0747Z" fill="#FAB908"/>
<path d="M53.9336 46.4072C53.9336 44.5817 55.4176 43.0977 57.2431 43.0977C59.0687 43.0977 60.5527 44.5817 60.5527 46.4072V58.1497C60.5527 59.9752 59.0687 61.4592 57.2431 61.4592C55.4176 61.4592 53.9336 59.9752 53.9336 58.1497V46.4072Z" fill="#34A853"/>
<path d="M48.8105 35.8672V55.1356C48.8105 56.9612 47.3265 58.4452 45.501 58.4452C43.6754 58.4452 42.1914 56.9612 42.1914 55.1356V35.8672C42.1914 34.0416 43.6754 32.5576 45.501 32.5576C47.3265 32.5576 48.8105 34.0298 48.8105 35.8672Z" fill="#FAB908"/>
</svg>
