<svg width="92" height="92" viewBox="0 0 92 92" fill="none" xmlns="http://www.w3.org/2000/svg">
<path d="M43.5415 23.0437C36.11 23.893 28.7046 30.0479 28.399 38.84C28.2068 44.2083 29.6958 48.2356 34.6865 49.3664C36.8523 45.4553 33.9879 44.5927 33.5425 41.7633C31.713 30.1686 46.6067 22.2615 54.4007 30.3563C59.7932 35.9615 56.2433 53.206 47.5455 51.4136C39.2145 49.7017 51.6237 35.9749 44.9737 33.2796C39.5681 31.0894 36.6951 39.9798 39.2581 44.396C37.7561 51.9902 34.5206 59.1464 35.8305 68.6715C40.079 65.5158 41.5112 59.4727 42.6857 53.1702C44.8209 54.4978 45.9605 55.8789 48.6851 56.0935C58.7321 56.8891 64.3429 45.8263 62.9719 35.6218C61.7537 26.5749 52.9336 21.971 43.5415 23.0437Z" fill="#FF0000"/>
</svg>
