<svg width="92" height="92" viewBox="0 0 92 92" fill="none" xmlns="http://www.w3.org/2000/svg">
<path d="M31.5525 52.6083C31.5525 55.5143 29.2037 57.863 26.2977 57.863C23.3917 57.863 21.043 55.5143 21.043 52.6083C21.043 49.7022 23.3917 47.3535 26.2977 47.3535H31.5525V52.6083ZM34.1798 52.6083C34.1798 49.7022 36.5285 47.3535 39.4346 47.3535C42.3406 47.3535 44.6893 49.7022 44.6893 52.6083V65.7451C44.6893 68.6512 42.3406 70.9999 39.4346 70.9999C36.5285 70.9999 34.1798 68.6512 34.1798 65.7451V52.6083Z" fill="#E01E5A"/>
<path d="M39.4314 31.5095C36.5254 31.5095 34.1767 29.1608 34.1767 26.2547C34.1767 23.3487 36.5254 21 39.4314 21C42.3374 21 44.6862 23.3487 44.6862 26.2547V31.5095H39.4314ZM39.4314 34.1767C42.3374 34.1767 44.6862 36.5254 44.6862 39.4314C44.6862 42.3375 42.3374 44.6862 39.4314 44.6862H26.2547C23.3487 44.6862 21 42.3375 21 39.4314C21 36.5254 23.3487 34.1767 26.2547 34.1767H39.4314Z" fill="#36C5F0"/>
<path d="M60.4923 39.4314C60.4923 36.5254 62.841 34.1767 65.7471 34.1767C68.6531 34.1767 71.0018 36.5254 71.0018 39.4314C71.0018 42.3375 68.6531 44.6862 65.7471 44.6862H60.4923V39.4314ZM57.865 39.4314C57.865 42.3375 55.5162 44.6862 52.6102 44.6862C49.7042 44.6862 47.3555 42.3375 47.3555 39.4314V26.2547C47.3555 23.3487 49.7042 21 52.6102 21C55.5162 21 57.865 23.3487 57.865 26.2547V39.4314Z" fill="#2EB67D"/>
<path d="M52.6102 60.4904C55.5162 60.4904 57.865 62.8391 57.865 65.7451C57.865 68.6512 55.5162 70.9999 52.6102 70.9999C49.7042 70.9999 47.3555 68.6512 47.3555 65.7451V60.4904H52.6102ZM52.6102 57.863C49.7042 57.863 47.3555 55.5143 47.3555 52.6083C47.3555 49.7022 49.7042 47.3535 52.6102 47.3535H65.7869C68.6929 47.3535 71.0416 49.7022 71.0416 52.6083C71.0416 55.5143 68.6929 57.863 65.7869 57.863H52.6102Z" fill="#ECB22E"/>
</svg>
