<?xml version="1.0" encoding="UTF-8"?>
<svg id="Ebene_1" data-name="Ebene 1" xmlns="http://www.w3.org/2000/svg" viewBox="0 0 80.08 40.19">
  <defs>
    <style>
      .cls-1 {
        fill: #10ccae;
      }
    </style>
  </defs>
  <rect x=".22" y="25.34" width="13.85" height="5.5" rx=".73" ry=".73" transform="translate(-17.77 13.28) rotate(-45)"/>
  <rect y="17.13" width="11.01" height="5.49" rx=".76" ry=".76"/>
  <rect x="5.03" y="4.22" width="5.39" height="16.17" rx=".74" ry=".74" transform="translate(-6.44 9.07) rotate(-45)"/>
  <path d="m16.05,23.04l-2.28-2.49c-.23-.25-.23-.64,0-.89l2.28-2.49s.06-.05.1-.06V1.32c0-.73-.59-1.32-1.32-1.32h-2.85c-.73,0-1.32.59-1.32,1.32v37.15c0,.73.59,1.32,1.32,1.32h2.85c.73,0,1.32-.59,1.32-1.32v-15.37c-.1-.03-.07-.03-.1-.06h0Z"/>
  <g>
    <path d="m18.76.4h14.56c.34,0,.61.27.61.61v3.34c0,.34-.27.61-.61.61h-4.03c-.34,0-.61.27-.61.61v12.53c0,.34-.27.61-.61.61h-4.13c-.34,0-.61-.27-.61-.61V5.57c0-.34-.27-.61-.61-.61h-3.95c-.34,0-.61-.27-.61-.61V1.01c0-.34.27-.61.61-.61h0Z"/>
    <path d="m35.8.4h3.62c.34,0,.61.27.61.61v2.44c0,.34-.27.61-.61.61h-3.62c-.34,0-.61-.27-.61-.61V1.01c0-.34.27-.61.61-.61Zm0,5.25h3.62c.34,0,.61.27.61.61v11.84c0,.34-.27.61-.61.61h-3.62c-.34,0-.61-.27-.61-.61V6.27c0-.34.27-.61.61-.61Z"/>
    <path d="m42.38.4h3.75c.34,0,.61.27.61.61v17.1c0,.34-.27.61-.61.61h-3.75c-.34,0-.61-.27-.61-.61V1.01c0-.34.27-.61.61-.61h0Z"/>
    <path d="m49.09.4h3.75c.34,0,.61.27.61.61v17.1c0,.34-.27.61-.61.61h-3.75c-.34,0-.61-.27-.61-.61V1.01c0-.34.27-.61.61-.61h0Z"/>
  </g>
  <g>
    <path d="m19.19,21.47h14.58c.33,0,.6.27.6.6v3.36c0,.33-.27.6-.6.6h-4.05c-.33,0-.6.27-.6.6v12.55c0,.33-.27.6-.6.6h-4.15c-.33,0-.6-.27-.6-.6v-12.55c0-.33-.27-.6-.6-.6h-3.97c-.33,0-.6-.27-.6-.6v-3.36c0-.33.27-.6.6-.6h0Z"/>
    <path d="m32.01,33.22c0-3.95,2.84-6.94,6.97-6.94,2.05,0,3.61.66,4.82,1.77,1.46,1.34,2.2,3.42,2.28,5.75.01.34-.26.63-.6.63h-7.93c-.42,0-.72.42-.56.81.4,1.02,1.16,1.62,2.34,1.62.75,0,1.32-.26,1.69-.77.1-.14.26-.21.43-.21h3.53c.44,0,.74.46.54.85-.44.87-1.2,1.68-2.17,2.3-1.2.77-2.51,1.1-4.18,1.1-4.28,0-7.15-2.92-7.15-6.92h0Zm5.52-1.36h2.97c.41,0,.71-.4.57-.79-.35-.98-1.06-1.54-1.99-1.54-1.06,0-1.75.57-2.12,1.53-.15.39.15.8.57.8h0Z"/>
    <path d="m46.73,33.28c0-3.97,2.87-6.94,7.17-6.94,3.39,0,5.74,1.84,6.36,4.51.08.37-.21.72-.59.72h-3.5c-.26,0-.49-.17-.57-.42-.29-.91-.84-1.43-1.76-1.43-1.48,0-2.2,1.36-2.2,3.56s.77,3.51,2.26,3.51c1.04,0,1.62-.62,1.83-1.78.05-.29.3-.5.59-.5h3.5c.36,0,.64.31.6.66-.33,2.89-2.87,5.02-6.52,5.02-4.3,0-7.17-2.95-7.17-6.92h0Z"/>
    <path d="m66.43,28.2h.08c.97-1.13,2.15-1.9,3.97-1.9,3.02,0,4.58,2.02,4.58,5.02v7.85c0,.33-.27.6-.6.6h-3.64c-.33,0-.6-.27-.6-.6v-6.67c0-1.36-.56-2.26-1.82-2.26s-1.97,1.08-1.97,2.48v6.44c0,.33-.27.6-.6.6h-3.64c-.33,0-.6-.27-.6-.6v-17.12c0-.33.27-.6.6-.6h3.64c.33,0,.6.27.6.6v6.14h0Z"/>
  </g>
  <circle class="cls-1" cx="78.25" cy="37.25" r="1.83"/>
</svg>